<svg version="1.1" xmlns="http://www.w3.org/2000/svg" xmlns:xlink="http://www.w3.org/1999/xlink" width="1160" height="701"><defs></defs><g><g transform="translate(-82,-54) scale(1,1)"><rect fill="#C0C0C0" stroke="none" x="251" y="343" width="498" height="160" opacity="0.2"></rect></g><g transform="translate(-82,-54) scale(1,1)"><rect fill="#ffffff" stroke="none" x="244" y="336" width="498" height="160"></rect></g><g transform="translate(-82,-54) scale(1,1)"><path fill="none" stroke="#000000" d="M 244 336 L 742 336 L 742 496 L 244 496 L 244 336 Z Z" stroke-miterlimit="10"></path></g><g transform="translate(-82,-54) scale(1,1)"><path fill="none" stroke="#000000" d="M 244 361 L 742 361" stroke-miterlimit="10"></path></g><g transform="translate(-82,-54) scale(1,1)"><path fill="none" stroke="#000000" d="M 244 371 L 742 371" stroke-miterlimit="10"></path></g><g transform="translate(-82,-54) scale(1,1)"><g><path fill="none" stroke="none"></path><text fill="#000000" stroke="none" font-family="Arial" font-size="13px" font-style="normal" font-weight="bold" text-decoration="none" x="476" y="355.5">Board</text></g></g><g transform="translate(-82,-54) scale(1,1)"><g><path fill="none" stroke="none"></path><text fill="#000000" stroke="none" font-family="Arial" font-size="13px" font-style="normal" font-weight="normal" text-decoration="none" x="249" y="388.5">+Board(data: Object)</text></g></g><g transform="translate(-82,-54) scale(1,1)"><g><path fill="none" stroke="none"></path><text fill="#000000" stroke="none" font-family="Arial" font-size="13px" font-style="normal" font-weight="normal" text-decoration="none" x="249" y="403.5">+update(data: Object)</text></g></g><g transform="translate(-82,-54) scale(1,1)"><g><path fill="none" stroke="none"></path><text fill="#000000" stroke="none" font-family="Arial" font-size="13px" font-style="normal" font-weight="normal" text-decoration="none" x="249" y="418.5">+placeShip(x: Number, y: Number, ship: Ship)</text></g></g><g transform="translate(-82,-54) scale(1,1)"><g><path fill="none" stroke="none"></path><text fill="#000000" stroke="none" font-family="Arial" font-size="13px" font-style="normal" font-weight="normal" text-decoration="none" x="249" y="433.5">+isOverlapping(x: Number, y: Number, length: Number, isVertical: Boolean): Boolean</text></g></g><g transform="translate(-82,-54) scale(1,1)"><g><path fill="none" stroke="none"></path><text fill="#000000" stroke="none" font-family="Arial" font-size="13px" font-style="normal" font-weight="normal" text-decoration="none" x="249" y="448.5">+getLatestShots(): Shot[*]</text></g></g><g transform="translate(-82,-54) scale(1,1)"><rect fill="#C0C0C0" stroke="none" x="955" y="567" width="116" height="130" opacity="0.2"></rect></g><g transform="translate(-82,-54) scale(1,1)"><rect fill="#ffffff" stroke="none" x="948" y="560" width="116" height="130"></rect></g><g transform="translate(-82,-54) scale(1,1)"><path fill="none" stroke="#000000" d="M 948 560 L 1064 560 L 1064 690 L 948 690 L 948 560 Z Z" stroke-miterlimit="10"></path></g><g transform="translate(-82,-54) scale(1,1)"><path fill="none" stroke="#000000" d="M 948 585 L 1064 585" stroke-miterlimit="10"></path></g><g transform="translate(-82,-54) scale(1,1)"><path fill="none" stroke="#000000" d="M 948 623 L 1064 623" stroke-miterlimit="10"></path></g><g transform="translate(-82,-54) scale(1,1)"><g><path fill="none" stroke="none"></path><text fill="#000000" stroke="none" font-family="Arial" font-size="13px" font-style="normal" font-weight="bold" text-decoration="none" x="995" y="579.5">Cell</text></g></g><g transform="translate(-82,-54) scale(1,1)"><g><path fill="none" stroke="none"></path><text fill="#000000" stroke="none" font-family="Arial" font-size="13px" font-style="normal" font-weight="normal" text-decoration="none" x="953" y="602.5">+x: Number</text></g></g><g transform="translate(-82,-54) scale(1,1)"><g><path fill="none" stroke="none"></path><text fill="#000000" stroke="none" font-family="Arial" font-size="13px" font-style="normal" font-weight="normal" text-decoration="none" x="953" y="617.5">+y: Number</text></g></g><g transform="translate(-82,-54) scale(1,1)"><g><path fill="none" stroke="none"></path><text fill="#000000" stroke="none" font-family="Arial" font-size="13px" font-style="normal" font-weight="normal" text-decoration="none" x="953" y="640.5">+Cell(cell: Object)</text></g></g><g transform="translate(-82,-54) scale(1,1)"><g><path fill="none" stroke="none"></path><text fill="#000000" stroke="none" font-family="Arial" font-size="13px" font-style="normal" font-weight="normal" text-decoration="none" x="953" y="655.5">+getX(): Number</text></g></g><g transform="translate(-82,-54) scale(1,1)"><g><path fill="none" stroke="none"></path><text fill="#000000" stroke="none" font-family="Arial" font-size="13px" font-style="normal" font-weight="normal" text-decoration="none" x="953" y="670.5">+getY(): Number</text></g></g><g transform="translate(-82,-54) scale(1,1)"><g><path fill="none" stroke="none"></path><text fill="#000000" stroke="none" font-family="Arial" font-size="13px" font-style="normal" font-weight="normal" text-decoration="none" x="953" y="685.5">+toJSON(): Object</text></g></g><g transform="translate(-82,-54) scale(1,1)"><rect fill="#C0C0C0" stroke="none" x="439" y="88" width="131" height="80" opacity="0.2"></rect></g><g transform="translate(-82,-54) scale(1,1)"><rect fill="#ffffff" stroke="none" x="432" y="81" width="131" height="80"></rect></g><g transform="translate(-82,-54) scale(1,1)"><path fill="none" stroke="#000000" d="M 432 81 L 563 81 L 563 161 L 432 161 L 432 81 Z Z" stroke-miterlimit="10"></path></g><g transform="translate(-82,-54) scale(1,1)"><path fill="none" stroke="#000000" d="M 432 106 L 563 106" stroke-miterlimit="10"></path></g><g transform="translate(-82,-54) scale(1,1)"><path fill="none" stroke="#000000" d="M 432 116 L 563 116" stroke-miterlimit="10"></path></g><g transform="translate(-82,-54) scale(1,1)"><g><path fill="none" stroke="none"></path><text fill="#000000" stroke="none" font-family="Arial" font-size="13px" font-style="normal" font-weight="bold" text-decoration="none" x="480" y="100.5">Game</text></g></g><g transform="translate(-82,-54) scale(1,1)"><g><path fill="none" stroke="none"></path><text fill="#000000" stroke="none" font-family="Arial" font-size="13px" font-style="normal" font-weight="normal" text-decoration="none" x="437" y="133.5">+Game(data: Object)</text></g></g><g transform="translate(-82,-54) scale(1,1)"><g><path fill="none" stroke="none"></path><text fill="#000000" stroke="none" font-family="Arial" font-size="13px" font-style="normal" font-weight="normal" text-decoration="none" x="437" y="148.5">+update()</text></g></g><g transform="translate(-82,-54) scale(1,1)"><rect fill="#C0C0C0" stroke="none" x="715" y="71" width="178" height="115" opacity="0.2"></rect></g><g transform="translate(-82,-54) scale(1,1)"><rect fill="#ffffff" stroke="none" x="708" y="64" width="178" height="115"></rect></g><g transform="translate(-82,-54) scale(1,1)"><path fill="none" stroke="#000000" d="M 708 64 L 886 64 L 886 179 L 708 179 L 708 64 Z Z" stroke-miterlimit="10"></path></g><g transform="translate(-82,-54) scale(1,1)"><path fill="none" stroke="#000000" d="M 708 102 L 886 102" stroke-miterlimit="10"></path></g><g transform="translate(-82,-54) scale(1,1)"><path fill="none" stroke="#000000" d="M 708 170 L 886 170" stroke-miterlimit="10"></path></g><g transform="translate(-82,-54) scale(1,1)"><g><path fill="none" stroke="none"></path><text fill="#000000" stroke="none" font-family="Arial" font-size="13px" font-style="normal" font-weight="normal" text-decoration="none" x="764" y="81.5">«singleton»</text></g></g><g transform="translate(-82,-54) scale(1,1)"><g><path fill="none" stroke="none"></path><text fill="#000000" stroke="none" font-family="Arial" font-size="13px" font-style="normal" font-weight="bold" text-decoration="none" x="760.5" y="96.5">GameStatus</text></g></g><g transform="translate(-82,-54) scale(1,1)"><g><path fill="none" stroke="none"></path><text fill="#000000" stroke="none" font-family="Arial" font-size="13px" font-style="normal" font-weight="normal" text-decoration="none" x="713" y="119.5">+QUEUE: String = 'que'</text><path fill="none" stroke="#000000" d="M 713 119.5 L 850 119.5" stroke-miterlimit="10"></path></g></g><g transform="translate(-82,-54) scale(1,1)"><g><path fill="none" stroke="none"></path><text fill="#000000" stroke="none" font-family="Arial" font-size="13px" font-style="normal" font-weight="normal" text-decoration="none" x="713" y="134.5">+SETUP: String = 'setup'</text><path fill="none" stroke="#000000" d="M 713 134.5 L 858 134.5" stroke-miterlimit="10"></path></g></g><g transform="translate(-82,-54) scale(1,1)"><g><path fill="none" stroke="none"></path><text fill="#000000" stroke="none" font-family="Arial" font-size="13px" font-style="normal" font-weight="normal" text-decoration="none" x="713" y="149.5">+STARTED: String = 'started'</text><path fill="none" stroke="#000000" d="M 713 149.5 L 882 149.5" stroke-miterlimit="10"></path></g></g><g transform="translate(-82,-54) scale(1,1)"><g><path fill="none" stroke="none"></path><text fill="#000000" stroke="none" font-family="Arial" font-size="13px" font-style="normal" font-weight="normal" text-decoration="none" x="713" y="164.5">+DONE: String = 'done'</text><path fill="none" stroke="#000000" d="M 713 164.5 L 848 164.5" stroke-miterlimit="10"></path></g></g><g transform="translate(-82,-54) scale(1,1)"><rect fill="#C0C0C0" stroke="none" x="1143" y="695" width="88" height="57" opacity="0.2"></rect></g><g transform="translate(-82,-54) scale(1,1)"><rect fill="#ffffff" stroke="none" x="1136" y="688" width="88" height="57"></rect></g><g transform="translate(-82,-54) scale(1,1)"><path fill="none" stroke="#000000" d="M 1136 688 L 1224 688 L 1224 745 L 1136 745 L 1136 688 Z Z" stroke-miterlimit="10"></path></g><g transform="translate(-82,-54) scale(1,1)"><path fill="none" stroke="#000000" d="M 1136 713 L 1224 713" stroke-miterlimit="10"></path></g><g transform="translate(-82,-54) scale(1,1)"><path fill="none" stroke="#000000" d="M 1136 723 L 1224 723" stroke-miterlimit="10"></path></g><g transform="translate(-82,-54) scale(1,1)"><g><path fill="none" stroke="none"></path><text fill="#000000" stroke="none" font-family="Arial" font-size="13px" font-style="normal" font-weight="bold" text-decoration="none" x="1172" y="707.5">Hit</text></g></g><g transform="translate(-82,-54) scale(1,1)"><g><path fill="none" stroke="none"></path><text fill="#000000" stroke="none" font-family="Arial" font-size="13px" font-style="normal" font-weight="normal" text-decoration="none" x="1141" y="740.5">+Hit()</text></g></g><g transform="translate(-82,-54) scale(1,1)"><rect fill="#C0C0C0" stroke="none" x="947" y="359" width="292" height="87" opacity="0.2"></rect></g><g transform="translate(-82,-54) scale(1,1)"><rect fill="#ffffff" stroke="none" x="940" y="352" width="292" height="87"></rect></g><g transform="translate(-82,-54) scale(1,1)"><path fill="none" stroke="#000000" d="M 940 352 L 1232 352 L 1232 439 L 940 439 L 940 352 Z Z" stroke-miterlimit="10"></path></g><g transform="translate(-82,-54) scale(1,1)"><path fill="none" stroke="#000000" d="M 940 377 L 1232 377" stroke-miterlimit="10"></path></g><g transform="translate(-82,-54) scale(1,1)"><path fill="none" stroke="#000000" d="M 940 387 L 1232 387" stroke-miterlimit="10"></path></g><g transform="translate(-82,-54) scale(1,1)"><g><path fill="none" stroke="none"></path><text fill="#000000" stroke="none" font-family="Arial" font-size="13px" font-style="normal" font-weight="bold" text-decoration="none" x="1073" y="371.5">Ship</text></g></g><g transform="translate(-82,-54) scale(1,1)"><g><path fill="none" stroke="none"></path><text fill="#000000" stroke="none" font-family="Arial" font-size="13px" font-style="normal" font-weight="normal" text-decoration="none" x="945" y="404.5">+Ship(data: Object)</text></g></g><g transform="translate(-82,-54) scale(1,1)"><g><path fill="none" stroke="none"></path><text fill="#000000" stroke="none" font-family="Arial" font-size="13px" font-style="normal" font-weight="normal" text-decoration="none" x="945" y="419.5">+update(data: Object)</text></g></g><g transform="translate(-82,-54) scale(1,1)"><g><path fill="none" stroke="none"></path><text fill="#000000" stroke="none" font-family="Arial" font-size="13px" font-style="normal" font-weight="normal" text-decoration="none" x="945" y="434.5">+isOverlapping(x, y, length, isVertical): Boolean</text></g></g><g transform="translate(-82,-54) scale(1,1)"><rect fill="#C0C0C0" stroke="none" x="99" y="607" width="135" height="72" opacity="0.2"></rect></g><g transform="translate(-82,-54) scale(1,1)"><rect fill="#ffffff" stroke="none" x="92" y="600" width="135" height="72"></rect></g><g transform="translate(-82,-54) scale(1,1)"><path fill="none" stroke="#000000" d="M 92 600 L 227 600 L 227 672 L 92 672 L 92 600 Z Z" stroke-miterlimit="10"></path></g><g transform="translate(-82,-54) scale(1,1)"><path fill="none" stroke="#000000" d="M 92 625 L 227 625" stroke-miterlimit="10"></path></g><g transform="translate(-82,-54) scale(1,1)"><path fill="none" stroke="#000000" d="M 92 635 L 227 635" stroke-miterlimit="10"></path></g><g transform="translate(-82,-54) scale(1,1)"><g><path fill="none" stroke="none"></path><text fill="#000000" stroke="none" font-family="Arial" font-size="13px" font-style="normal" font-weight="bold" text-decoration="none" x="146" y="619.5">Shot</text></g></g><g transform="translate(-82,-54) scale(1,1)"><g><path fill="none" stroke="none"></path><text fill="#000000" stroke="none" font-family="Arial" font-size="13px" font-style="normal" font-weight="normal" text-decoration="none" x="97" y="652.5">+Shot(data: Object)</text></g></g><g transform="translate(-82,-54) scale(1,1)"><g><path fill="none" stroke="none"></path><text fill="#000000" stroke="none" font-family="Arial" font-size="13px" font-style="normal" font-weight="normal" text-decoration="none" x="97" y="667.5">+update(data: Object)</text></g></g><g transform="translate(-82,-54) scale(1,1)"><path fill="none" stroke="#000000" d="M 516 335 Q 540 248 511 162" stroke-miterlimit="10"></path></g><g transform="translate(-82,-54) scale(1,1)"><path fill="#000000" stroke="none" d="M 518.2361299112162 170.28483095228881 L 511 162 L 510.25845638242015 172.9749766771154 L 518.0296895483579 182.84666555719903"></path></g><g transform="translate(-82,-54) scale(1,1)"><path fill="none" stroke="#000000" d="M 518.2361299112162 170.28483095228881 L 511 162 L 510.25845638242015 172.9749766771154 L 518.0296895483579 182.84666555719903 L 518.2361299112162 170.28483095228881" stroke-miterlimit="10"></path></g><g transform="translate(-82,-54) scale(1,1)"><g><path fill="none" stroke="none"></path><text fill="#000000" stroke="none" font-family="Arial" font-size="13px" font-style="normal" font-weight="normal" text-decoration="none" x="539" y="248">+myGameboard</text></g></g><g transform="translate(-82,-54) scale(1,1)"><g><path fill="none" stroke="none"></path><text fill="#000000" stroke="none" font-family="Arial" font-size="13px" font-style="normal" font-weight="normal" text-decoration="none" x="530" y="324">1</text></g></g><g transform="translate(-82,-54) scale(1,1)"><g><path fill="none" stroke="none"></path><text fill="#000000" stroke="none" font-family="Arial" font-size="13px" font-style="normal" font-weight="normal" text-decoration="none" x="526" y="185">1</text></g></g><g transform="translate(-82,-54) scale(1,1)"><path fill="none" stroke="#000000" d="M 475 335 Q 456 248 484 162" stroke-miterlimit="10"></path></g><g transform="translate(-82,-54) scale(1,1)"><path fill="#000000" stroke="none" d="M 484.8564878337307 172.9666051534042 L 484 162 L 476.8510674846673 170.36018922580217 L 477.18910695586254 182.91917149270785"></path></g><g transform="translate(-82,-54) scale(1,1)"><path fill="none" stroke="#000000" d="M 484.8564878337307 172.9666051534042 L 484 162 L 476.8510674846673 170.36018922580217 L 477.18910695586254 182.91917149270785 L 484.8564878337307 172.9666051534042" stroke-miterlimit="10"></path></g><g transform="translate(-82,-54) scale(1,1)"><g><path fill="none" stroke="none"></path><text fill="#000000" stroke="none" font-family="Arial" font-size="13px" font-style="normal" font-weight="normal" text-decoration="none" x="338" y="260">+enemyGameboard</text></g></g><g transform="translate(-82,-54) scale(1,1)"><g><path fill="none" stroke="none"></path><text fill="#000000" stroke="none" font-family="Arial" font-size="13px" font-style="normal" font-weight="normal" text-decoration="none" x="479" y="318">1</text></g></g><g transform="translate(-82,-54) scale(1,1)"><g><path fill="none" stroke="none"></path><text fill="#000000" stroke="none" font-family="Arial" font-size="13px" font-style="normal" font-weight="normal" text-decoration="none" x="486" y="193">1</text></g></g><g transform="translate(-82,-54) scale(1,1)"><path fill="none" stroke="#000000" d="M 939 400 L 743 407" stroke-miterlimit="10"></path></g><g transform="translate(-82,-54) scale(1,1)"><path fill="#000000" stroke="none" d="M 753.0059556220899 402.43044290015257 L 743 407 L 753.3064438849527 410.8441142603102 L 764.9859827956461 406.2147863287269"></path></g><g transform="translate(-82,-54) scale(1,1)"><path fill="none" stroke="#000000" d="M 753.0059556220899 402.43044290015257 L 743 407 L 753.3064438849527 410.8441142603102 L 764.9859827956461 406.2147863287269 L 753.0059556220899 402.43044290015257" stroke-miterlimit="10"></path></g><g transform="translate(-82,-54) scale(1,1)"><g><path fill="none" stroke="none"></path><text fill="#000000" stroke="none" font-family="Arial" font-size="13px" font-style="normal" font-weight="normal" text-decoration="none" x="822" y="424">+ships</text></g></g><g transform="translate(-82,-54) scale(1,1)"><g><path fill="none" stroke="none"></path><text fill="#000000" stroke="none" font-family="Arial" font-size="13px" font-style="normal" font-weight="normal" text-decoration="none" x="905" y="395">0..5</text></g></g><g transform="translate(-82,-54) scale(1,1)"><g><path fill="none" stroke="none"></path><text fill="#000000" stroke="none" font-family="Arial" font-size="13px" font-style="normal" font-weight="normal" text-decoration="none" x="761" y="400">1</text></g></g><g transform="translate(-82,-54) scale(1,1)"><path fill="none" stroke="#000000" d="M 564 121 L 707 121" stroke-miterlimit="10"></path></g><g transform="translate(-82,-54) scale(1,1)"><path fill="none" stroke="#000000" d="M 1029 559 L 1070 440" stroke-miterlimit="10"></path></g><g transform="translate(-82,-54) scale(1,1)"><path fill="#000000" stroke="none" d="M 1070.6694707748995 450.9796087763433 L 1070 440 L 1062.70963150421 448.2371431452654 L 1062.8335919479746 460.80006239490314"></path></g><g transform="translate(-82,-54) scale(1,1)"><path fill="none" stroke="#000000" d="M 1070.6694707748995 450.9796087763433 L 1070 440 L 1062.70963150421 448.2371431452654 L 1062.8335919479746 460.80006239490314 L 1070.6694707748995 450.9796087763433" stroke-miterlimit="10"></path></g><g transform="translate(-82,-54) scale(1,1)"><g><path fill="none" stroke="none"></path><text fill="#000000" stroke="none" font-family="Arial" font-size="13px" font-style="normal" font-weight="normal" text-decoration="none" x="1058" y="500">+startCell</text></g></g><g transform="translate(-82,-54) scale(1,1)"><g><path fill="none" stroke="none"></path><text fill="#000000" stroke="none" font-family="Arial" font-size="13px" font-style="normal" font-weight="normal" text-decoration="none" x="1044" y="549">1</text></g></g><g transform="translate(-82,-54) scale(1,1)"><g><path fill="none" stroke="none"></path><text fill="#000000" stroke="none" font-family="Arial" font-size="13px" font-style="normal" font-weight="normal" text-decoration="none" x="1071" y="471">1</text></g></g><g transform="translate(-82,-54) scale(1,1)"><path fill="none" stroke="#000000" d="M 228 600 Q 304 560 387 497" stroke-miterlimit="10"></path></g><g transform="translate(-82,-54) scale(1,1)"><path fill="#000000" stroke="none" d="M 381.450164994374 506.49733285772004 L 387 497 L 376.36004556617576 499.791302499935 L 369.47629818636284 510.30112306336315"></path></g><g transform="translate(-82,-54) scale(1,1)"><path fill="none" stroke="#000000" d="M 381.450164994374 506.49733285772004 L 387 497 L 376.36004556617576 499.791302499935 L 369.47629818636284 510.30112306336315 L 381.450164994374 506.49733285772004" stroke-miterlimit="10"></path></g><g transform="translate(-82,-54) scale(1,1)"><g><path fill="none" stroke="none"></path><text fill="#000000" stroke="none" font-family="Arial" font-size="13px" font-style="normal" font-weight="normal" text-decoration="none" x="279" y="588">+latestShots</text></g></g><g transform="translate(-82,-54) scale(1,1)"><g><path fill="none" stroke="none"></path><text fill="#000000" stroke="none" font-family="Arial" font-size="13px" font-style="normal" font-weight="normal" text-decoration="none" x="250" y="607">*</text></g></g><g transform="translate(-82,-54) scale(1,1)"><g><path fill="none" stroke="none"></path><text fill="#000000" stroke="none" font-family="Arial" font-size="13px" font-style="normal" font-weight="normal" text-decoration="none" x="374" y="527">1</text></g></g><g transform="translate(-82,-54) scale(1,1)"><path fill="none" stroke="#000000" d="M 186 599 Q 232 536 317 497" stroke-miterlimit="10"></path></g><g transform="translate(-82,-54) scale(1,1)"><path fill="#000000" stroke="none" d="M 309.5186507011719 505.06408163828496 L 317 497 L 306.0077203679002 497.41205398884665 L 297.0042881340678 506.1745030914277"></path></g><g transform="translate(-82,-54) scale(1,1)"><path fill="none" stroke="#000000" d="M 309.5186507011719 505.06408163828496 L 317 497 L 306.0077203679002 497.41205398884665 L 297.0042881340678 506.1745030914277 L 309.5186507011719 505.06408163828496" stroke-miterlimit="10"></path></g><g transform="translate(-82,-54) scale(1,1)"><g><path fill="none" stroke="none"></path><text fill="#000000" stroke="none" font-family="Arial" font-size="13px" font-style="normal" font-weight="normal" text-decoration="none" x="205" y="529">+shots</text></g></g><g transform="translate(-82,-54) scale(1,1)"><g><path fill="none" stroke="none"></path><text fill="#000000" stroke="none" font-family="Arial" font-size="13px" font-style="normal" font-weight="normal" text-decoration="none" x="206" y="595">*</text></g></g><g transform="translate(-82,-54) scale(1,1)"><g><path fill="none" stroke="none"></path><text fill="#000000" stroke="none" font-family="Arial" font-size="13px" font-style="normal" font-weight="normal" text-decoration="none" x="299" y="524">1</text></g></g></g></svg>