<svg version="1.1" xmlns="http://www.w3.org/2000/svg" xmlns:xlink="http://www.w3.org/1999/xlink" width="752" height="736"><defs></defs><g><g transform="translate(-550,-330) scale(1,1)"><rect fill="#C0C0C0" stroke="none" x="676" y="509" width="116" height="267" opacity="0.2"></rect></g><g transform="translate(-550,-330) scale(1,1)"><rect fill="#ffffff" stroke="none" x="669" y="502" width="116" height="267"></rect></g><g transform="translate(-550,-330) scale(1,1)"><path fill="none" stroke="#000000" d="M 669 502 L 785 502 L 785 769 L 669 769 L 669 502 Z Z" stroke-miterlimit="10"></path></g><g transform="translate(-550,-330) scale(1,1)"><path fill="none" stroke="#000000" d="M 669 542 L 785 542" stroke-miterlimit="10"></path></g><g transform="translate(-550,-330) scale(1,1)"><path fill="none" stroke="#000000" d="M 669 552 L 785 552" stroke-miterlimit="10"></path></g><g transform="translate(-550,-330) scale(1,1)"><g><path fill="none" stroke="none"></path><text fill="#000000" stroke="none" font-family="Arial" font-size="13px" font-style="normal" font-weight="bold" text-decoration="none" x="702" y="521.5">Board3D</text></g></g><g transform="translate(-550,-330) scale(1,1)"><g><path fill="none" stroke="none"></path><text fill="#000000" stroke="none" font-family="Arial" font-size="13px" font-style="normal" font-weight="normal" text-decoration="none" x="691.5" y="536.5">(from Entity)</text></g></g><g transform="translate(-550,-330) scale(1,1)"><g><path fill="none" stroke="none"></path><text fill="#000000" stroke="none" font-family="Arial" font-size="13px" font-style="normal" font-weight="normal" text-decoration="none" x="674" y="569.5">+createGrid()</text></g></g><g transform="translate(-550,-330) scale(1,1)"><g><path fill="none" stroke="none"></path><text fill="#000000" stroke="none" font-family="Arial" font-size="13px" font-style="normal" font-weight="normal" text-decoration="none" x="674" y="584.5">+update()</text></g></g><g transform="translate(-550,-330) scale(1,1)"><g><path fill="none" stroke="none"></path><text fill="#000000" stroke="none" font-family="Arial" font-size="13px" font-style="normal" font-weight="normal" text-decoration="none" x="674" y="599.5">+placeShip()</text></g></g><g transform="translate(-550,-330) scale(1,1)"><g><path fill="none" stroke="none"></path><text fill="#000000" stroke="none" font-family="Arial" font-size="13px" font-style="normal" font-weight="normal" text-decoration="none" x="674" y="614.5">+isWithinBounds()</text></g></g><g transform="translate(-550,-330) scale(1,1)"><g><path fill="none" stroke="none"></path><text fill="#000000" stroke="none" font-family="Arial" font-size="13px" font-style="normal" font-weight="normal" text-decoration="none" x="674" y="629.5">+isOverlapping()</text></g></g><g transform="translate(-550,-330) scale(1,1)"><g><path fill="none" stroke="none"></path><text fill="#000000" stroke="none" font-family="Arial" font-size="13px" font-style="normal" font-weight="normal" text-decoration="none" x="674" y="644.5">+gridToWorld()</text></g></g><g transform="translate(-550,-330) scale(1,1)"><g><path fill="none" stroke="none"></path><text fill="#000000" stroke="none" font-family="Arial" font-size="13px" font-style="normal" font-weight="normal" text-decoration="none" x="674" y="659.5">+worldToGrid()</text></g></g><g transform="translate(-550,-330) scale(1,1)"><g><path fill="none" stroke="none"></path><text fill="#000000" stroke="none" font-family="Arial" font-size="13px" font-style="normal" font-weight="normal" text-decoration="none" x="674" y="674.5">+getLatestShots()</text></g></g><g transform="translate(-550,-330) scale(1,1)"><g><path fill="none" stroke="none"></path><text fill="#000000" stroke="none" font-family="Arial" font-size="13px" font-style="normal" font-weight="normal" text-decoration="none" x="674" y="689.5">+sync()</text></g></g><g transform="translate(-550,-330) scale(1,1)"><g><path fill="none" stroke="none"></path><text fill="#000000" stroke="none" font-family="Arial" font-size="13px" font-style="normal" font-weight="normal" text-decoration="none" x="674" y="704.5">+getShipObjects()</text></g></g><g transform="translate(-550,-330) scale(1,1)"><g><path fill="none" stroke="none"></path><text fill="#000000" stroke="none" font-family="Arial" font-size="13px" font-style="normal" font-weight="normal" text-decoration="none" x="674" y="719.5">+resetShips()</text></g></g><g transform="translate(-550,-330) scale(1,1)"><g><path fill="none" stroke="none"></path><text fill="#000000" stroke="none" font-family="Arial" font-size="13px" font-style="normal" font-weight="normal" text-decoration="none" x="674" y="734.5">+getObjects()</text></g></g><g transform="translate(-550,-330) scale(1,1)"><g><path fill="none" stroke="none"></path><text fill="#000000" stroke="none" font-family="Arial" font-size="13px" font-style="normal" font-weight="normal" text-decoration="none" x="674" y="749.5">+getSupport()</text></g></g><g transform="translate(-550,-330) scale(1,1)"><g><path fill="none" stroke="none"></path><text fill="#000000" stroke="none" font-family="Arial" font-size="13px" font-style="normal" font-weight="normal" text-decoration="none" x="674" y="764.5">+hasShipType()</text></g></g><g transform="translate(-550,-330) scale(1,1)"><rect fill="#C0C0C0" stroke="none" x="631" y="859" width="99" height="87" opacity="0.2"></rect></g><g transform="translate(-550,-330) scale(1,1)"><rect fill="#ffffff" stroke="none" x="624" y="852" width="99" height="87"></rect></g><g transform="translate(-550,-330) scale(1,1)"><path fill="none" stroke="#000000" d="M 624 852 L 723 852 L 723 939 L 624 939 L 624 852 Z Z" stroke-miterlimit="10"></path></g><g transform="translate(-550,-330) scale(1,1)"><path fill="none" stroke="#000000" d="M 624 877 L 723 877" stroke-miterlimit="10"></path></g><g transform="translate(-550,-330) scale(1,1)"><path fill="none" stroke="#000000" d="M 624 887 L 723 887" stroke-miterlimit="10"></path></g><g transform="translate(-550,-330) scale(1,1)"><g><path fill="none" stroke="none"></path><text fill="#000000" stroke="none" font-family="Arial" font-size="13px" font-style="normal" font-weight="bold" text-decoration="none" x="652" y="871.5">Shot3D</text></g></g><g transform="translate(-550,-330) scale(1,1)"><g><path fill="none" stroke="none"></path><text fill="#000000" stroke="none" font-family="Arial" font-size="13px" font-style="normal" font-weight="normal" text-decoration="none" x="629" y="904.5">+createObject()</text></g></g><g transform="translate(-550,-330) scale(1,1)"><g><path fill="none" stroke="none"></path><text fill="#000000" stroke="none" font-family="Arial" font-size="13px" font-style="normal" font-weight="normal" text-decoration="none" x="629" y="919.5">+update()</text></g></g><g transform="translate(-550,-330) scale(1,1)"><g><path fill="none" stroke="none"></path><text fill="#000000" stroke="none" font-family="Arial" font-size="13px" font-style="normal" font-weight="normal" text-decoration="none" x="629" y="934.5">+getObject()</text></g></g><g transform="translate(-550,-330) scale(1,1)"><rect fill="#C0C0C0" stroke="none" x="567" y="991" width="103" height="72" opacity="0.2"></rect></g><g transform="translate(-550,-330) scale(1,1)"><rect fill="#ffffff" stroke="none" x="560" y="984" width="103" height="72"></rect></g><g transform="translate(-550,-330) scale(1,1)"><path fill="none" stroke="#000000" d="M 560 984 L 663 984 L 663 1056 L 560 1056 L 560 984 Z Z" stroke-miterlimit="10"></path></g><g transform="translate(-550,-330) scale(1,1)"><path fill="none" stroke="#000000" d="M 560 1009 L 663 1009" stroke-miterlimit="10"></path></g><g transform="translate(-550,-330) scale(1,1)"><path fill="none" stroke="#000000" d="M 560 1019 L 663 1019" stroke-miterlimit="10"></path></g><g transform="translate(-550,-330) scale(1,1)"><g><path fill="none" stroke="none"></path><text fill="#000000" stroke="none" font-family="Arial" font-size="13px" font-style="normal" font-weight="bold" text-decoration="none" x="573" y="1003.5">BoomShot3D</text></g></g><g transform="translate(-550,-330) scale(1,1)"><g><path fill="none" stroke="none"></path><text fill="#000000" stroke="none" font-family="Arial" font-size="13px" font-style="normal" font-weight="normal" text-decoration="none" x="565" y="1036.5">+createEmitter()</text></g></g><g transform="translate(-550,-330) scale(1,1)"><g><path fill="none" stroke="none"></path><text fill="#000000" stroke="none" font-family="Arial" font-size="13px" font-style="normal" font-weight="normal" text-decoration="none" x="565" y="1051.5">+update()</text></g></g><g transform="translate(-550,-330) scale(1,1)"><path fill="none" stroke="#000000" d="M 629 983 L 651 940" stroke-miterlimit="10"></path></g><g transform="translate(-550,-330) scale(1,1)"><path fill="#FFFFFF" stroke="none" d="M 649.2373258891116 961.9292722172626 L 651 940 L 634.2472640918568 954.259938274481"></path></g><g transform="translate(-550,-330) scale(1,1)"><path fill="none" stroke="#000000" d="M 649.2373258891116 961.9292722172626 L 651 940 L 634.2472640918568 954.259938274481 L 649.2373258891116 961.9292722172626" stroke-miterlimit="10"></path></g><g transform="translate(-550,-330) scale(1,1)"><rect fill="#C0C0C0" stroke="none" x="1027" y="347" width="96" height="102" opacity="0.2"></rect></g><g transform="translate(-550,-330) scale(1,1)"><rect fill="#ffffff" stroke="none" x="1020" y="340" width="96" height="102"></rect></g><g transform="translate(-550,-330) scale(1,1)"><path fill="none" stroke="#000000" d="M 1020 340 L 1116 340 L 1116 442 L 1020 442 L 1020 340 Z Z" stroke-miterlimit="10"></path></g><g transform="translate(-550,-330) scale(1,1)"><path fill="none" stroke="#000000" d="M 1020 365 L 1116 365" stroke-miterlimit="10"></path></g><g transform="translate(-550,-330) scale(1,1)"><path fill="none" stroke="#000000" d="M 1020 375 L 1116 375" stroke-miterlimit="10"></path></g><g transform="translate(-550,-330) scale(1,1)"><g><path fill="none" stroke="none"></path><text fill="#000000" stroke="none" font-family="Arial" font-size="13px" font-style="normal" font-weight="bold" text-decoration="none" x="1032.5" y="359.5">Environment</text></g></g><g transform="translate(-550,-330) scale(1,1)"><g><path fill="none" stroke="none"></path><text fill="#000000" stroke="none" font-family="Arial" font-size="13px" font-style="normal" font-weight="normal" text-decoration="none" x="1025" y="392.5">+createLights()</text></g></g><g transform="translate(-550,-330) scale(1,1)"><g><path fill="none" stroke="none"></path><text fill="#000000" stroke="none" font-family="Arial" font-size="13px" font-style="normal" font-weight="normal" text-decoration="none" x="1025" y="407.5">+update()</text></g></g><g transform="translate(-550,-330) scale(1,1)"><g><path fill="none" stroke="none"></path><text fill="#000000" stroke="none" font-family="Arial" font-size="13px" font-style="normal" font-weight="normal" text-decoration="none" x="1025" y="422.5">+render()</text></g></g><g transform="translate(-550,-330) scale(1,1)"><g><path fill="none" stroke="none"></path><text fill="#000000" stroke="none" font-family="Arial" font-size="13px" font-style="normal" font-weight="normal" text-decoration="none" x="1025" y="437.5">+getObject()</text></g></g><g transform="translate(-550,-330) scale(1,1)"><path fill="none" stroke="#000000" d="M 682 851 L 699 770" stroke-miterlimit="10"></path></g><g transform="translate(-550,-330) scale(1,1)"><path fill="#FFFFFF" stroke="none" d="M 701.032332760454 780.8106254930409 L 699 770 L 692.7928096815472 779.0813428715419 L 694.4811667418903 791.5309114062875"></path></g><g transform="translate(-550,-330) scale(1,1)"><path fill="none" stroke="#000000" d="M 701.032332760454 780.8106254930409 L 699 770 L 692.7928096815472 779.0813428715419 L 694.4811667418903 791.5309114062875 L 701.032332760454 780.8106254930409" stroke-miterlimit="10"></path></g><g transform="translate(-550,-330) scale(1,1)"><g><path fill="none" stroke="none"></path><text fill="#000000" stroke="none" font-family="Arial" font-size="13px" font-style="normal" font-weight="normal" text-decoration="none" x="696" y="839">*</text></g></g><g transform="translate(-550,-330) scale(1,1)"><g><path fill="none" stroke="none"></path><text fill="#000000" stroke="none" font-family="Arial" font-size="13px" font-style="normal" font-weight="normal" text-decoration="none" x="703" y="800">1</text></g></g><g transform="translate(-550,-330) scale(1,1)"><rect fill="#C0C0C0" stroke="none" x="811" y="863" width="130" height="162" opacity="0.2"></rect></g><g transform="translate(-550,-330) scale(1,1)"><rect fill="#ffffff" stroke="none" x="804" y="856" width="130" height="162"></rect></g><g transform="translate(-550,-330) scale(1,1)"><path fill="none" stroke="#000000" d="M 804 856 L 934 856 L 934 1018 L 804 1018 L 804 856 Z Z" stroke-miterlimit="10"></path></g><g transform="translate(-550,-330) scale(1,1)"><path fill="none" stroke="#000000" d="M 804 881 L 934 881" stroke-miterlimit="10"></path></g><g transform="translate(-550,-330) scale(1,1)"><path fill="none" stroke="#000000" d="M 804 891 L 934 891" stroke-miterlimit="10"></path></g><g transform="translate(-550,-330) scale(1,1)"><g><path fill="none" stroke="none"></path><text fill="#000000" stroke="none" font-family="Arial" font-size="13px" font-style="normal" font-weight="bold" text-decoration="none" x="848" y="875.5">Ship3D</text></g></g><g transform="translate(-550,-330) scale(1,1)"><g><path fill="none" stroke="none"></path><text fill="#000000" stroke="none" font-family="Arial" font-size="13px" font-style="normal" font-weight="normal" text-decoration="none" x="809" y="908.5">+update()</text></g></g><g transform="translate(-550,-330) scale(1,1)"><g><path fill="none" stroke="none"></path><text fill="#000000" stroke="none" font-family="Arial" font-size="13px" font-style="normal" font-weight="normal" text-decoration="none" x="809" y="923.5">+addObject()</text></g></g><g transform="translate(-550,-330) scale(1,1)"><g><path fill="none" stroke="none"></path><text fill="#000000" stroke="none" font-family="Arial" font-size="13px" font-style="normal" font-weight="normal" text-decoration="none" x="809" y="938.5">+getObject()</text></g></g><g transform="translate(-550,-330) scale(1,1)"><g><path fill="none" stroke="none"></path><text fill="#000000" stroke="none" font-family="Arial" font-size="13px" font-style="normal" font-weight="normal" text-decoration="none" x="809" y="953.5">+rotate()</text></g></g><g transform="translate(-550,-330) scale(1,1)"><g><path fill="none" stroke="none"></path><text fill="#000000" stroke="none" font-family="Arial" font-size="13px" font-style="normal" font-weight="normal" text-decoration="none" x="809" y="968.5">+rotateToHorizontal()</text></g></g><g transform="translate(-550,-330) scale(1,1)"><g><path fill="none" stroke="none"></path><text fill="#000000" stroke="none" font-family="Arial" font-size="13px" font-style="normal" font-weight="normal" text-decoration="none" x="809" y="983.5">+rotateToVertical()</text></g></g><g transform="translate(-550,-330) scale(1,1)"><g><path fill="none" stroke="none"></path><text fill="#000000" stroke="none" font-family="Arial" font-size="13px" font-style="normal" font-weight="normal" text-decoration="none" x="809" y="998.5">+setInvalid()</text></g></g><g transform="translate(-550,-330) scale(1,1)"><g><path fill="none" stroke="none"></path><text fill="#000000" stroke="none" font-family="Arial" font-size="13px" font-style="normal" font-weight="normal" text-decoration="none" x="809" y="1013.5">+isInvalid()</text></g></g><g transform="translate(-550,-330) scale(1,1)"><path fill="none" stroke="#000000" d="M 830 855 L 786 760" stroke-miterlimit="10"></path></g><g transform="translate(-550,-330) scale(1,1)"><path fill="#FFFFFF" stroke="none" d="M 794.0907736093711 767.4524749178984 L 786 760 L 786.4513453331629 770.9907364353 L 795.2459229173687 779.9627881170461"></path></g><g transform="translate(-550,-330) scale(1,1)"><path fill="none" stroke="#000000" d="M 794.0907736093711 767.4524749178984 L 786 760 L 786.4513453331629 770.9907364353 L 795.2459229173687 779.9627881170461 L 794.0907736093711 767.4524749178984" stroke-miterlimit="10"></path></g><g transform="translate(-550,-330) scale(1,1)"><g><path fill="none" stroke="none"></path><text fill="#000000" stroke="none" font-family="Arial" font-size="13px" font-style="normal" font-weight="normal" text-decoration="none" x="830" y="837">*</text></g></g><g transform="translate(-550,-330) scale(1,1)"><g><path fill="none" stroke="none"></path><text fill="#000000" stroke="none" font-family="Arial" font-size="13px" font-style="normal" font-weight="normal" text-decoration="none" x="803" y="781">1</text></g></g><g transform="translate(-550,-330) scale(1,1)"><rect fill="#C0C0C0" stroke="none" x="1203" y="427" width="88" height="57" opacity="0.2"></rect></g><g transform="translate(-550,-330) scale(1,1)"><rect fill="#ffffff" stroke="none" x="1196" y="420" width="88" height="57"></rect></g><g transform="translate(-550,-330) scale(1,1)"><path fill="none" stroke="#000000" d="M 1196 420 L 1284 420 L 1284 477 L 1196 477 L 1196 420 Z Z" stroke-miterlimit="10"></path></g><g transform="translate(-550,-330) scale(1,1)"><path fill="none" stroke="#000000" d="M 1196 445 L 1284 445" stroke-miterlimit="10"></path></g><g transform="translate(-550,-330) scale(1,1)"><path fill="none" stroke="#000000" d="M 1196 455 L 1284 455" stroke-miterlimit="10"></path></g><g transform="translate(-550,-330) scale(1,1)"><g><path fill="none" stroke="none"></path><text fill="#000000" stroke="none" font-family="Arial" font-size="13px" font-style="normal" font-weight="bold" text-decoration="none" x="1218" y="439.5">Skybox</text></g></g><g transform="translate(-550,-330) scale(1,1)"><g><path fill="none" stroke="none"></path><text fill="#000000" stroke="none" font-family="Arial" font-size="13px" font-style="normal" font-weight="normal" text-decoration="none" x="1201" y="472.5">+getObject()</text></g></g><g transform="translate(-550,-330) scale(1,1)"><rect fill="#C0C0C0" stroke="none" x="1203" y="539" width="88" height="57" opacity="0.2"></rect></g><g transform="translate(-550,-330) scale(1,1)"><rect fill="#ffffff" stroke="none" x="1196" y="532" width="88" height="57"></rect></g><g transform="translate(-550,-330) scale(1,1)"><path fill="none" stroke="#000000" d="M 1196 532 L 1284 532 L 1284 589 L 1196 589 L 1196 532 Z Z" stroke-miterlimit="10"></path></g><g transform="translate(-550,-330) scale(1,1)"><path fill="none" stroke="#000000" d="M 1196 557 L 1284 557" stroke-miterlimit="10"></path></g><g transform="translate(-550,-330) scale(1,1)"><path fill="none" stroke="#000000" d="M 1196 567 L 1284 567" stroke-miterlimit="10"></path></g><g transform="translate(-550,-330) scale(1,1)"><g><path fill="none" stroke="none"></path><text fill="#000000" stroke="none" font-family="Arial" font-size="13px" font-style="normal" font-weight="bold" text-decoration="none" x="1212.5" y="551.5">Skydome</text></g></g><g transform="translate(-550,-330) scale(1,1)"><g><path fill="none" stroke="none"></path><text fill="#000000" stroke="none" font-family="Arial" font-size="13px" font-style="normal" font-weight="normal" text-decoration="none" x="1201" y="584.5">+getObject()</text></g></g><g transform="translate(-550,-330) scale(1,1)"><rect fill="#C0C0C0" stroke="none" x="691" y="991" width="103" height="72" opacity="0.2"></rect></g><g transform="translate(-550,-330) scale(1,1)"><rect fill="#ffffff" stroke="none" x="684" y="984" width="103" height="72"></rect></g><g transform="translate(-550,-330) scale(1,1)"><path fill="none" stroke="#000000" d="M 684 984 L 787 984 L 787 1056 L 684 1056 L 684 984 Z Z" stroke-miterlimit="10"></path></g><g transform="translate(-550,-330) scale(1,1)"><path fill="none" stroke="#000000" d="M 684 1009 L 787 1009" stroke-miterlimit="10"></path></g><g transform="translate(-550,-330) scale(1,1)"><path fill="none" stroke="#000000" d="M 684 1019 L 787 1019" stroke-miterlimit="10"></path></g><g transform="translate(-550,-330) scale(1,1)"><g><path fill="none" stroke="none"></path><text fill="#000000" stroke="none" font-family="Arial" font-size="13px" font-style="normal" font-weight="bold" text-decoration="none" x="694" y="1003.5">SplashShot3D</text></g></g><g transform="translate(-550,-330) scale(1,1)"><g><path fill="none" stroke="none"></path><text fill="#000000" stroke="none" font-family="Arial" font-size="13px" font-style="normal" font-weight="normal" text-decoration="none" x="689" y="1036.5">+createEmitter()</text></g></g><g transform="translate(-550,-330) scale(1,1)"><g><path fill="none" stroke="none"></path><text fill="#000000" stroke="none" font-family="Arial" font-size="13px" font-style="normal" font-weight="normal" text-decoration="none" x="689" y="1051.5">+update()</text></g></g><g transform="translate(-550,-330) scale(1,1)"><path fill="none" stroke="#000000" d="M 717 983 L 695 940" stroke-miterlimit="10"></path></g><g transform="translate(-550,-330) scale(1,1)"><path fill="#FFFFFF" stroke="none" d="M 711.7527359081432 954.259938274481 L 695 940 L 696.7626741108884 961.9292722172626"></path></g><g transform="translate(-550,-330) scale(1,1)"><path fill="none" stroke="#000000" d="M 711.7527359081432 954.259938274481 L 695 940 L 696.7626741108884 961.9292722172626 L 711.7527359081432 954.259938274481" stroke-miterlimit="10"></path></g><g transform="translate(-550,-330) scale(1,1)"><rect fill="#C0C0C0" stroke="none" x="1039" y="523" width="103" height="132" opacity="0.2"></rect></g><g transform="translate(-550,-330) scale(1,1)"><rect fill="#ffffff" stroke="none" x="1032" y="516" width="103" height="132"></rect></g><g transform="translate(-550,-330) scale(1,1)"><path fill="none" stroke="#000000" d="M 1032 516 L 1135 516 L 1135 648 L 1032 648 L 1032 516 Z Z" stroke-miterlimit="10"></path></g><g transform="translate(-550,-330) scale(1,1)"><path fill="none" stroke="#000000" d="M 1032 541 L 1135 541" stroke-miterlimit="10"></path></g><g transform="translate(-550,-330) scale(1,1)"><path fill="none" stroke="#000000" d="M 1032 551 L 1135 551" stroke-miterlimit="10"></path></g><g transform="translate(-550,-330) scale(1,1)"><g><path fill="none" stroke="none"></path><text fill="#000000" stroke="none" font-family="Arial" font-size="13px" font-style="normal" font-weight="bold" text-decoration="none" x="1060.5" y="535.5">Torpedo</text></g></g><g transform="translate(-550,-330) scale(1,1)"><g><path fill="none" stroke="none"></path><text fill="#000000" stroke="none" font-family="Arial" font-size="13px" font-style="normal" font-weight="normal" text-decoration="none" x="1037" y="568.5">+createShell()</text></g></g><g transform="translate(-550,-330) scale(1,1)"><g><path fill="none" stroke="none"></path><text fill="#000000" stroke="none" font-family="Arial" font-size="13px" font-style="normal" font-weight="normal" text-decoration="none" x="1037" y="583.5">+createEmitter()</text></g></g><g transform="translate(-550,-330) scale(1,1)"><g><path fill="none" stroke="none"></path><text fill="#000000" stroke="none" font-family="Arial" font-size="13px" font-style="normal" font-weight="normal" text-decoration="none" x="1037" y="598.5">+shoot()</text></g></g><g transform="translate(-550,-330) scale(1,1)"><g><path fill="none" stroke="none"></path><text fill="#000000" stroke="none" font-family="Arial" font-size="13px" font-style="normal" font-weight="normal" text-decoration="none" x="1037" y="613.5">+update()</text></g></g><g transform="translate(-550,-330) scale(1,1)"><g><path fill="none" stroke="none"></path><text fill="#000000" stroke="none" font-family="Arial" font-size="13px" font-style="normal" font-weight="normal" text-decoration="none" x="1037" y="628.5">+explode()</text></g></g><g transform="translate(-550,-330) scale(1,1)"><g><path fill="none" stroke="none"></path><text fill="#000000" stroke="none" font-family="Arial" font-size="13px" font-style="normal" font-weight="normal" text-decoration="none" x="1037" y="643.5">+getObject()</text></g></g><g transform="translate(-550,-330) scale(1,1)"><rect fill="#C0C0C0" stroke="none" x="1211" y="659" width="88" height="87" opacity="0.2"></rect></g><g transform="translate(-550,-330) scale(1,1)"><rect fill="#ffffff" stroke="none" x="1204" y="652" width="88" height="87"></rect></g><g transform="translate(-550,-330) scale(1,1)"><path fill="none" stroke="#000000" d="M 1204 652 L 1292 652 L 1292 739 L 1204 739 L 1204 652 Z Z" stroke-miterlimit="10"></path></g><g transform="translate(-550,-330) scale(1,1)"><path fill="none" stroke="#000000" d="M 1204 677 L 1292 677" stroke-miterlimit="10"></path></g><g transform="translate(-550,-330) scale(1,1)"><path fill="none" stroke="#000000" d="M 1204 687 L 1292 687" stroke-miterlimit="10"></path></g><g transform="translate(-550,-330) scale(1,1)"><g><path fill="none" stroke="none"></path><text fill="#000000" stroke="none" font-family="Arial" font-size="13px" font-style="normal" font-weight="bold" text-decoration="none" x="1230.5" y="671.5">Water</text></g></g><g transform="translate(-550,-330) scale(1,1)"><g><path fill="none" stroke="none"></path><text fill="#000000" stroke="none" font-family="Arial" font-size="13px" font-style="normal" font-weight="normal" text-decoration="none" x="1209" y="704.5">+update()</text></g></g><g transform="translate(-550,-330) scale(1,1)"><g><path fill="none" stroke="none"></path><text fill="#000000" stroke="none" font-family="Arial" font-size="13px" font-style="normal" font-weight="normal" text-decoration="none" x="1209" y="719.5">+render()</text></g></g><g transform="translate(-550,-330) scale(1,1)"><g><path fill="none" stroke="none"></path><text fill="#000000" stroke="none" font-family="Arial" font-size="13px" font-style="normal" font-weight="normal" text-decoration="none" x="1209" y="734.5">+getObject()</text></g></g></g></svg>