<svg version="1.1" xmlns="http://www.w3.org/2000/svg" xmlns:xlink="http://www.w3.org/1999/xlink" width="322" height="259"><defs></defs><g><g transform="translate(-982,-489) scale(1,1)"><rect fill="#C0C0C0" stroke="none" x="1157" y="506" width="90" height="72" opacity="0.2"></rect></g><g transform="translate(-982,-489) scale(1,1)"><rect fill="#ffffff" stroke="none" x="1150" y="499" width="90" height="72"></rect></g><g transform="translate(-982,-489) scale(1,1)"><path fill="none" stroke="#000000" d="M 1150 499 L 1240 499 L 1240 571 L 1150 571 L 1150 499 Z Z" stroke-miterlimit="10"></path></g><g transform="translate(-982,-489) scale(1,1)"><path fill="none" stroke="#000000" d="M 1150 539 L 1240 539" stroke-miterlimit="10"></path></g><g transform="translate(-982,-489) scale(1,1)"><path fill="none" stroke="#000000" d="M 1150 549 L 1240 549" stroke-miterlimit="10"></path></g><g transform="translate(-982,-489) scale(1,1)"><g><path fill="none" stroke="none"></path><text fill="#000000" stroke="none" font-family="Arial" font-size="13px" font-style="normal" font-weight="bold" text-decoration="none" x="1160" y="518.5">ShipFactory</text></g></g><g transform="translate(-982,-489) scale(1,1)"><g><path fill="none" stroke="none"></path><text fill="#000000" stroke="none" font-family="Arial" font-size="13px" font-style="normal" font-weight="normal" text-decoration="none" x="1154.5" y="533.5">(from Factory)</text></g></g><g transform="translate(-982,-489) scale(1,1)"><g><path fill="none" stroke="none"></path><text fill="#000000" stroke="none" font-family="Arial" font-size="13px" font-style="normal" font-weight="normal" text-decoration="none" x="1155" y="566.5">+create()</text></g></g><g transform="translate(-982,-489) scale(1,1)"><rect fill="#C0C0C0" stroke="none" x="999" y="643" width="136" height="102" opacity="0.2"></rect></g><g transform="translate(-982,-489) scale(1,1)"><rect fill="#ffffff" stroke="none" x="992" y="636" width="136" height="102"></rect></g><g transform="translate(-982,-489) scale(1,1)"><path fill="none" stroke="#000000" d="M 992 636 L 1128 636 L 1128 738 L 992 738 L 992 636 Z Z" stroke-miterlimit="10"></path></g><g transform="translate(-982,-489) scale(1,1)"><path fill="none" stroke="#000000" d="M 992 676 L 1128 676" stroke-miterlimit="10"></path></g><g transform="translate(-982,-489) scale(1,1)"><path fill="none" stroke="#000000" d="M 992 686 L 1128 686" stroke-miterlimit="10"></path></g><g transform="translate(-982,-489) scale(1,1)"><g><path fill="none" stroke="none"></path><text fill="#000000" stroke="none" font-family="Arial" font-size="13px" font-style="normal" font-weight="bold" text-decoration="none" x="1021" y="655.5">BoardFactory</text></g></g><g transform="translate(-982,-489) scale(1,1)"><g><path fill="none" stroke="none"></path><text fill="#000000" stroke="none" font-family="Arial" font-size="13px" font-style="normal" font-weight="normal" text-decoration="none" x="1019.5" y="670.5">(from Factory)</text></g></g><g transform="translate(-982,-489) scale(1,1)"><g><path fill="none" stroke="none"></path><text fill="#000000" stroke="none" font-family="Arial" font-size="13px" font-style="normal" font-weight="normal" text-decoration="none" x="997" y="703.5">+create()</text></g></g><g transform="translate(-982,-489) scale(1,1)"><g><path fill="none" stroke="none"></path><text fill="#000000" stroke="none" font-family="Arial" font-size="13px" font-style="normal" font-weight="normal" text-decoration="none" x="997" y="718.5">+createPlayerboard()</text></g></g><g transform="translate(-982,-489) scale(1,1)"><g><path fill="none" stroke="none"></path><text fill="#000000" stroke="none" font-family="Arial" font-size="13px" font-style="normal" font-weight="normal" text-decoration="none" x="997" y="733.5">+createEnemyBoard()</text></g></g><g transform="translate(-982,-489) scale(1,1)"><rect fill="#C0C0C0" stroke="none" x="1211" y="635" width="90" height="72" opacity="0.2"></rect></g><g transform="translate(-982,-489) scale(1,1)"><rect fill="#ffffff" stroke="none" x="1204" y="628" width="90" height="72"></rect></g><g transform="translate(-982,-489) scale(1,1)"><path fill="none" stroke="#000000" d="M 1204 628 L 1294 628 L 1294 700 L 1204 700 L 1204 628 Z Z" stroke-miterlimit="10"></path></g><g transform="translate(-982,-489) scale(1,1)"><path fill="none" stroke="#000000" d="M 1204 668 L 1294 668" stroke-miterlimit="10"></path></g><g transform="translate(-982,-489) scale(1,1)"><path fill="none" stroke="#000000" d="M 1204 678 L 1294 678" stroke-miterlimit="10"></path></g><g transform="translate(-982,-489) scale(1,1)"><g><path fill="none" stroke="none"></path><text fill="#000000" stroke="none" font-family="Arial" font-size="13px" font-style="normal" font-weight="bold" text-decoration="none" x="1213.5" y="647.5">ShotFactory</text></g></g><g transform="translate(-982,-489) scale(1,1)"><g><path fill="none" stroke="none"></path><text fill="#000000" stroke="none" font-family="Arial" font-size="13px" font-style="normal" font-weight="normal" text-decoration="none" x="1208.5" y="662.5">(from Factory)</text></g></g><g transform="translate(-982,-489) scale(1,1)"><g><path fill="none" stroke="none"></path><text fill="#000000" stroke="none" font-family="Arial" font-size="13px" font-style="normal" font-weight="normal" text-decoration="none" x="1209" y="695.5">+create()</text></g></g></g></svg>