<svg version="1.1" xmlns="http://www.w3.org/2000/svg" xmlns:xlink="http://www.w3.org/1999/xlink" width="749" height="316"><defs></defs><g><g transform="translate(-274,-112) scale(1,1)"><path fill="#C0C0C0" stroke="none" d="M 291 150.5 C 291 145.2532944 295.2532944 141 300.5 141 C 305.7467056 141 310 145.2532944 310 150.5 C 310 155.7467056 305.7467056 160 300.5 160 C 295.2532944 160 291 155.7467056 291 150.5 Z" opacity="0.2"></path></g><g transform="translate(-274,-112) scale(1,1)"><path fill="#000000" stroke="none" d="M 284 143.5 C 284 138.2532944 288.2532944 134 293.5 134 C 298.7467056 134 303 138.2532944 303 143.5 C 303 148.7467056 298.7467056 153 293.5 153 C 288.2532944 153 284 148.7467056 284 143.5 Z"></path></g><g transform="translate(-274,-112) scale(1,1)"><path fill="#C0C0C0" stroke="none" d="M 405 131 L 446 131 Q 456 131 456 141 L 456 160 Q 456 170 446 170 L 405 170 Q 395 170 395 160 L 395 141 Q 395 131 405 131 Z" opacity="0.2"></path></g><g transform="translate(-274,-112) scale(1,1)"><path fill="#ffffff" stroke="none" d="M 398 124 L 439 124 Q 449 124 449 134 L 449 153 Q 449 163 439 163 L 398 163 Q 388 163 388 153 L 388 134 Q 388 124 398 124 Z"></path></g><g transform="translate(-274,-112) scale(1,1)"><path fill="none" stroke="#000000" d="M 398 124 L 439 124 Q 449 124 449 134 L 449 153 Q 449 163 439 163 L 398 163 Q 388 163 388 153 L 388 134 Q 388 124 398 124 Z" stroke-miterlimit="10"></path></g><g transform="translate(-274,-112) scale(1,1)"><g><path fill="none" stroke="none"></path><text fill="#000000" stroke="none" font-family="Arial" font-size="13px" font-style="normal" font-weight="bold" text-decoration="none" x="396" y="143.5">Loading</text></g></g><g transform="translate(-274,-112) scale(1,1)"><path fill="#C0C0C0" stroke="none" d="M 629 131 L 668 131 Q 678 131 678 141 L 678 160 Q 678 170 668 170 L 629 170 Q 619 170 619 160 L 619 141 Q 619 131 629 131 Z" opacity="0.2"></path></g><g transform="translate(-274,-112) scale(1,1)"><path fill="#ffffff" stroke="none" d="M 622 124 L 661 124 Q 671 124 671 134 L 671 153 Q 671 163 661 163 L 622 163 Q 612 163 612 153 L 612 134 Q 612 124 622 124 Z"></path></g><g transform="translate(-274,-112) scale(1,1)"><path fill="none" stroke="#000000" d="M 622 124 L 661 124 Q 671 124 671 134 L 671 153 Q 671 163 661 163 L 622 163 Q 612 163 612 153 L 612 134 Q 612 124 622 124 Z" stroke-miterlimit="10"></path></g><g transform="translate(-274,-112) scale(1,1)"><g><path fill="none" stroke="none"></path><text fill="#000000" stroke="none" font-family="Arial" font-size="13px" font-style="normal" font-weight="bold" text-decoration="none" x="624" y="143.5">Lobby</text></g></g><g transform="translate(-274,-112) scale(1,1)"><path fill="none" stroke="#000000" d="M 304 143 L 387 143" stroke-miterlimit="10"></path></g><g transform="translate(-274,-112) scale(1,1)"><path fill="none" stroke="#000000" d="M 376.83732514237585 147.209517756016 L 387 143 L 376.83732514237585 138.790482243984" stroke-miterlimit="10"></path></g><g transform="translate(-274,-112) scale(1,1)"><path fill="none" stroke="#000000" d="M 450 143 L 611 143" stroke-miterlimit="10"></path></g><g transform="translate(-274,-112) scale(1,1)"><path fill="none" stroke="#000000" d="M 600.8373251423759 147.209517756016 L 611 143 L 600.8373251423758 138.790482243984" stroke-miterlimit="10"></path></g><g transform="translate(-274,-112) scale(1,1)"><g><path fill="none" stroke="none"></path><text fill="#000000" stroke="none" font-family="Arial" font-size="13px" font-style="normal" font-weight="normal" text-decoration="none" x="481" y="135">all assets loaded</text></g></g><g transform="translate(-274,-112) scale(1,1)"><path fill="#C0C0C0" stroke="none" d="M 701 275 L 740 275 Q 750 275 750 285 L 750 304 Q 750 314 740 314 L 701 314 Q 691 314 691 304 L 691 285 Q 691 275 701 275 Z" opacity="0.2"></path></g><g transform="translate(-274,-112) scale(1,1)"><path fill="#ffffff" stroke="none" d="M 694 268 L 733 268 Q 743 268 743 278 L 743 297 Q 743 307 733 307 L 694 307 Q 684 307 684 297 L 684 278 Q 684 268 694 268 Z"></path></g><g transform="translate(-274,-112) scale(1,1)"><path fill="none" stroke="#000000" d="M 694 268 L 733 268 Q 743 268 743 278 L 743 297 Q 743 307 733 307 L 694 307 Q 684 307 684 297 L 684 278 Q 684 268 694 268 Z" stroke-miterlimit="10"></path></g><g transform="translate(-274,-112) scale(1,1)"><g><path fill="none" stroke="none"></path><text fill="#000000" stroke="none" font-family="Arial" font-size="13px" font-style="normal" font-weight="bold" text-decoration="none" x="692.5" y="287.5">Started</text></g></g><g transform="translate(-274,-112) scale(1,1)"><path fill="#C0C0C0" stroke="none" d="M 501 275 L 540 275 Q 550 275 550 285 L 550 304 Q 550 314 540 314 L 501 314 Q 491 314 491 304 L 491 285 Q 491 275 501 275 Z" opacity="0.2"></path></g><g transform="translate(-274,-112) scale(1,1)"><path fill="#ffffff" stroke="none" d="M 494 268 L 533 268 Q 543 268 543 278 L 543 297 Q 543 307 533 307 L 494 307 Q 484 307 484 297 L 484 278 Q 484 268 494 268 Z"></path></g><g transform="translate(-274,-112) scale(1,1)"><path fill="none" stroke="#000000" d="M 494 268 L 533 268 Q 543 268 543 278 L 543 297 Q 543 307 533 307 L 494 307 Q 484 307 484 297 L 484 278 Q 484 268 494 268 Z" stroke-miterlimit="10"></path></g><g transform="translate(-274,-112) scale(1,1)"><g><path fill="none" stroke="none"></path><text fill="#000000" stroke="none" font-family="Arial" font-size="13px" font-style="normal" font-weight="bold" text-decoration="none" x="496.5" y="287.5">Setup</text></g></g><g transform="translate(-274,-112) scale(1,1)"><path fill="#C0C0C0" stroke="none" d="M 941 275 L 980 275 Q 990 275 990 285 L 990 304 Q 990 314 980 314 L 941 314 Q 931 314 931 304 L 931 285 Q 931 275 941 275 Z" opacity="0.2"></path></g><g transform="translate(-274,-112) scale(1,1)"><path fill="#ffffff" stroke="none" d="M 934 268 L 973 268 Q 983 268 983 278 L 983 297 Q 983 307 973 307 L 934 307 Q 924 307 924 297 L 924 278 Q 924 268 934 268 Z"></path></g><g transform="translate(-274,-112) scale(1,1)"><path fill="none" stroke="#000000" d="M 934 268 L 973 268 Q 983 268 983 278 L 983 297 Q 983 307 973 307 L 934 307 Q 924 307 924 297 L 924 278 Q 924 268 934 268 Z" stroke-miterlimit="10"></path></g><g transform="translate(-274,-112) scale(1,1)"><g><path fill="none" stroke="none"></path><text fill="#000000" stroke="none" font-family="Arial" font-size="13px" font-style="normal" font-weight="bold" text-decoration="none" x="938.5" y="287.5">Done</text></g></g><g transform="translate(-274,-112) scale(1,1)"><path fill="none" stroke="#000000" d="M 617 163 L 617 200 L 512 200 L 512 268" stroke-miterlimit="10"></path></g><g transform="translate(-274,-112) scale(1,1)"><path fill="none" stroke="#000000" d="M 507.790482243984 257.83732514237585 L 512 268 L 516.209517756016 257.83732514237585" stroke-miterlimit="10"></path></g><g transform="translate(-274,-112) scale(1,1)"><g><path fill="none" stroke="none"></path><text fill="#000000" stroke="none" font-family="Arial" font-size="13px" font-style="normal" font-weight="normal" text-decoration="none" x="483" y="192">join game :  [in setup]</text></g></g><g transform="translate(-274,-112) scale(1,1)"><path fill="none" stroke="#000000" d="M 640 163 L 640 240 L 712 240 L 712 268" stroke-miterlimit="10"></path></g><g transform="translate(-274,-112) scale(1,1)"><path fill="none" stroke="#000000" d="M 707.790482243984 257.83732514237585 L 712 268 L 716.209517756016 257.83732514237585" stroke-miterlimit="10"></path></g><g transform="translate(-274,-112) scale(1,1)"><g><path fill="none" stroke="none"></path><text fill="#000000" stroke="none" font-family="Arial" font-size="13px" font-style="normal" font-weight="normal" text-decoration="none" x="647" y="233">join game :  [is started]</text></g></g><g transform="translate(-274,-112) scale(1,1)"><path fill="none" stroke="#000000" d="M 665 163 L 665 200 L 953 200 L 953 268" stroke-miterlimit="10"></path></g><g transform="translate(-274,-112) scale(1,1)"><path fill="none" stroke="#000000" d="M 948.790482243984 257.83732514237585 L 953 268 L 957.209517756016 257.83732514237585" stroke-miterlimit="10"></path></g><g transform="translate(-274,-112) scale(1,1)"><g><path fill="none" stroke="none"></path><text fill="#000000" stroke="none" font-family="Arial" font-size="13px" font-style="normal" font-weight="normal" text-decoration="none" x="739" y="192">join game :  [is done]</text></g></g><g transform="translate(-274,-112) scale(1,1)"><path fill="none" stroke="#000000" d="M 544 287 L 683 287" stroke-miterlimit="10"></path></g><g transform="translate(-274,-112) scale(1,1)"><path fill="none" stroke="#000000" d="M 672.8373251423759 291.209517756016 L 683 287 L 672.8373251423758 282.790482243984" stroke-miterlimit="10"></path></g><g transform="translate(-274,-112) scale(1,1)"><g><path fill="none" stroke="none"></path><text fill="#000000" stroke="none" font-family="Arial" font-size="13px" font-style="normal" font-weight="normal" text-decoration="none" x="567" y="279">post gameboard</text></g></g><g transform="translate(-274,-112) scale(1,1)"><path fill="#C0C0C0" stroke="none" d="M 589 381 L 658 381 Q 668 381 668 391 L 668 410 Q 668 420 658 420 L 589 420 Q 579 420 579 410 L 579 391 Q 579 381 589 381 Z" opacity="0.2"></path></g><g transform="translate(-274,-112) scale(1,1)"><path fill="#ffffff" stroke="none" d="M 582 374 L 651 374 Q 661 374 661 384 L 661 403 Q 661 413 651 413 L 582 413 Q 572 413 572 403 L 572 384 Q 572 374 582 374 Z"></path></g><g transform="translate(-274,-112) scale(1,1)"><path fill="none" stroke="#000000" d="M 582 374 L 651 374 Q 661 374 661 384 L 661 403 Q 661 413 651 413 L 582 413 Q 572 413 572 403 L 572 384 Q 572 374 582 374 Z" stroke-miterlimit="10"></path></g><g transform="translate(-274,-112) scale(1,1)"><g><path fill="none" stroke="none"></path><text fill="#000000" stroke="none" font-family="Arial" font-size="13px" font-style="normal" font-weight="bold" text-decoration="none" x="580" y="393.5">Players Turn</text></g></g><g transform="translate(-274,-112) scale(1,1)"><path fill="#C0C0C0" stroke="none" d="M 777 381 L 848 381 Q 858 381 858 391 L 858 410 Q 858 420 848 420 L 777 420 Q 767 420 767 410 L 767 391 Q 767 381 777 381 Z" opacity="0.2"></path></g><g transform="translate(-274,-112) scale(1,1)"><path fill="#ffffff" stroke="none" d="M 770 374 L 841 374 Q 851 374 851 384 L 851 403 Q 851 413 841 413 L 770 413 Q 760 413 760 403 L 760 384 Q 760 374 770 374 Z"></path></g><g transform="translate(-274,-112) scale(1,1)"><path fill="none" stroke="#000000" d="M 770 374 L 841 374 Q 851 374 851 384 L 851 403 Q 851 413 841 413 L 770 413 Q 760 413 760 403 L 760 384 Q 760 374 770 374 Z" stroke-miterlimit="10"></path></g><g transform="translate(-274,-112) scale(1,1)"><g><path fill="none" stroke="none"></path><text fill="#000000" stroke="none" font-family="Arial" font-size="13px" font-style="normal" font-weight="bold" text-decoration="none" x="767" y="393.5">Enemys Turn</text></g></g><g transform="translate(-274,-112) scale(1,1)"><path fill="none" stroke="#000000" d="M 712 307 L 712 340 L 616 340 L 616 374" stroke-miterlimit="10"></path></g><g transform="translate(-274,-112) scale(1,1)"><path fill="none" stroke="#000000" d="M 611.790482243984 363.83732514237585 L 616 374 L 620.209517756016 363.83732514237585" stroke-miterlimit="10"></path></g><g transform="translate(-274,-112) scale(1,1)"><g><path fill="none" stroke="none"></path><text fill="#000000" stroke="none" font-family="Arial" font-size="13px" font-style="normal" font-weight="normal" text-decoration="none" x="594" y="332"> :  [yourTurn = true]</text></g></g><g transform="translate(-274,-112) scale(1,1)"><path fill="none" stroke="#000000" d="M 731 307 L 731 340 L 808 340 L 808 374" stroke-miterlimit="10"></path></g><g transform="translate(-274,-112) scale(1,1)"><path fill="none" stroke="#000000" d="M 803.790482243984 363.83732514237585 L 808 374 L 812.209517756016 363.83732514237585" stroke-miterlimit="10"></path></g><g transform="translate(-274,-112) scale(1,1)"><g><path fill="none" stroke="none"></path><text fill="#000000" stroke="none" font-family="Arial" font-size="13px" font-style="normal" font-weight="normal" text-decoration="none" x="736" y="333"> :  [yourTurn = false]</text></g></g><g transform="translate(-274,-112) scale(1,1)"><path fill="none" stroke="#000000" d="M 662 385 Q 708 376 759 385" stroke-miterlimit="10"></path></g><g transform="translate(-274,-112) scale(1,1)"><path fill="none" stroke="#000000" d="M 748.260412437774 387.3793400331354 L 759 385 L 749.7235173354246 379.088412279782" stroke-miterlimit="10"></path></g><g transform="translate(-274,-112) scale(1,1)"><g><path fill="none" stroke="none"></path><text fill="#000000" stroke="none" font-family="Arial" font-size="13px" font-style="normal" font-weight="normal" text-decoration="none" x="694" y="368">shoot</text></g></g><g transform="translate(-274,-112) scale(1,1)"><path fill="none" stroke="#000000" d="M 759 396 Q 704 400 662 397" stroke-miterlimit="10"></path></g><g transform="translate(-274,-112) scale(1,1)"><path fill="none" stroke="#000000" d="M 672.4367641722762 393.5252404957619 L 662 397 L 671.8369327283004 401.9228807114221" stroke-miterlimit="10"></path></g><g transform="translate(-274,-112) scale(1,1)"><g><path fill="none" stroke="none"></path><text fill="#000000" stroke="none" font-family="Arial" font-size="13px" font-style="normal" font-weight="normal" text-decoration="none" x="695" y="419">shoot</text></g></g><g transform="translate(-274,-112) scale(1,1)"><path fill="none" stroke="#000000" d="M 851 393 L 952 393 L 952 307" stroke-miterlimit="10"></path></g><g transform="translate(-274,-112) scale(1,1)"><path fill="none" stroke="#000000" d="M 956.209517756016 317.16267485762415 L 952 307 L 947.790482243984 317.16267485762415" stroke-miterlimit="10"></path></g><g transform="translate(-274,-112) scale(1,1)"><g><path fill="none" stroke="none"></path><text fill="#000000" stroke="none" font-family="Arial" font-size="13px" font-style="normal" font-weight="normal" text-decoration="none" x="867" y="409"> :  [status = done]</text></g></g><g transform="translate(-274,-112) scale(1,1)"><path fill="none" stroke="#000000" d="M 983 292 L 1012 292 L 1012 144 L 671 144" stroke-miterlimit="10"></path></g><g transform="translate(-274,-112) scale(1,1)"><path fill="none" stroke="#000000" d="M 681.1626748576241 139.790482243984 L 671 144 L 681.1626748576241 148.209517756016" stroke-miterlimit="10"></path></g><g transform="translate(-274,-112) scale(1,1)"><g><path fill="none" stroke="none"></path><text fill="#000000" stroke="none" font-family="Arial" font-size="13px" font-style="normal" font-weight="normal" text-decoration="none" x="899" y="137">click back button</text></g></g></g></svg>