<svg version="1.1" xmlns="http://www.w3.org/2000/svg" xmlns:xlink="http://www.w3.org/1999/xlink" width="241" height="92"><defs></defs><g><g transform="translate(-1054,-590) scale(1,1)"><rect fill="#C0C0C0" stroke="none" x="1071" y="607" width="91" height="72" opacity="0.2"></rect></g><g transform="translate(-1054,-590) scale(1,1)"><rect fill="#ffffff" stroke="none" x="1064" y="600" width="91" height="72"></rect></g><g transform="translate(-1054,-590) scale(1,1)"><path fill="none" stroke="#000000" d="M 1064 600 L 1155 600 L 1155 672 L 1064 672 L 1064 600 Z Z" stroke-miterlimit="10"></path></g><g transform="translate(-1054,-590) scale(1,1)"><path fill="none" stroke="#000000" d="M 1064 640 L 1155 640" stroke-miterlimit="10"></path></g><g transform="translate(-1054,-590) scale(1,1)"><path fill="none" stroke="#000000" d="M 1064 650 L 1155 650" stroke-miterlimit="10"></path></g><g transform="translate(-1054,-590) scale(1,1)"><g><path fill="none" stroke="none"></path><text fill="#000000" stroke="none" font-family="Arial" font-size="13px" font-style="normal" font-weight="bold" text-decoration="none" x="1073.5" y="619.5">AudioLoader</text></g></g><g transform="translate(-1054,-590) scale(1,1)"><g><path fill="none" stroke="none"></path><text fill="#000000" stroke="none" font-family="Arial" font-size="13px" font-style="normal" font-weight="normal" text-decoration="none" x="1071.5" y="634.5">(from Loader)</text></g></g><g transform="translate(-1054,-590) scale(1,1)"><g><path fill="none" stroke="none"></path><text fill="#000000" stroke="none" font-family="Arial" font-size="13px" font-style="normal" font-weight="normal" text-decoration="none" x="1069" y="667.5">+load()</text></g></g><g transform="translate(-1054,-590) scale(1,1)"><rect fill="#C0C0C0" stroke="none" x="1203" y="607" width="89" height="57" opacity="0.2"></rect></g><g transform="translate(-1054,-590) scale(1,1)"><rect fill="#ffffff" stroke="none" x="1196" y="600" width="89" height="57"></rect></g><g transform="translate(-1054,-590) scale(1,1)"><path fill="none" stroke="#000000" d="M 1196 600 L 1285 600 L 1285 657 L 1196 657 L 1196 600 Z Z" stroke-miterlimit="10"></path></g><g transform="translate(-1054,-590) scale(1,1)"><path fill="none" stroke="#000000" d="M 1196 625 L 1285 625" stroke-miterlimit="10"></path></g><g transform="translate(-1054,-590) scale(1,1)"><path fill="none" stroke="#000000" d="M 1196 635 L 1285 635" stroke-miterlimit="10"></path></g><g transform="translate(-1054,-590) scale(1,1)"><g><path fill="none" stroke="none"></path><text fill="#000000" stroke="none" font-family="Arial" font-size="13px" font-style="normal" font-weight="bold" text-decoration="none" x="1204" y="619.5">JSONLoader</text></g></g><g transform="translate(-1054,-590) scale(1,1)"><g><path fill="none" stroke="none"></path><text fill="#000000" stroke="none" font-family="Arial" font-size="13px" font-style="normal" font-weight="normal" text-decoration="none" x="1201" y="652.5">+load()</text></g></g></g></svg>