<svg version="1.1" xmlns="http://www.w3.org/2000/svg" xmlns:xlink="http://www.w3.org/1999/xlink" width="465" height="396"><defs></defs><g><g transform="translate(-954,-406) scale(1,1)"><rect fill="#C0C0C0" stroke="none" x="1115" y="423" width="140" height="117" opacity="0.2"></rect></g><g transform="translate(-954,-406) scale(1,1)"><rect fill="#ffffff" stroke="none" x="1108" y="416" width="140" height="117"></rect></g><g transform="translate(-954,-406) scale(1,1)"><path fill="none" stroke="#000000" d="M 1108 416 L 1248 416 L 1248 533 L 1108 533 L 1108 416 Z Z" stroke-miterlimit="10"></path></g><g transform="translate(-954,-406) scale(1,1)"><path fill="none" stroke="#000000" d="M 1108 456 L 1248 456" stroke-miterlimit="10"></path></g><g transform="translate(-954,-406) scale(1,1)"><path fill="none" stroke="#000000" d="M 1108 466 L 1248 466" stroke-miterlimit="10"></path></g><g transform="translate(-954,-406) scale(1,1)"><g><path fill="none" stroke="none"></path><text fill="#000000" stroke="none" font-family="Arial" font-size="13px" font-style="normal" font-weight="bold" text-decoration="none" x="1139.5" y="435.5">ParticleEffect</text></g></g><g transform="translate(-954,-406) scale(1,1)"><g><path fill="none" stroke="none"></path><text fill="#000000" stroke="none" font-family="Arial" font-size="13px" font-style="normal" font-weight="normal" text-decoration="none" x="1137.5" y="450.5">(from Particle)</text></g></g><g transform="translate(-954,-406) scale(1,1)"><g><path fill="none" stroke="none"></path><text fill="#000000" stroke="none" font-family="Arial" font-size="13px" font-style="normal" font-weight="normal" text-decoration="none" x="1113" y="483.5">+createParticleGroup()</text></g></g><g transform="translate(-954,-406) scale(1,1)"><g><path fill="none" stroke="none"></path><text fill="#000000" stroke="none" font-family="Arial" font-size="13px" font-style="normal" font-weight="normal" text-decoration="none" x="1113" y="498.5">+attach()</text></g></g><g transform="translate(-954,-406) scale(1,1)"><g><path fill="none" stroke="none"></path><text fill="#000000" stroke="none" font-family="Arial" font-size="13px" font-style="normal" font-weight="normal" text-decoration="none" x="1113" y="513.5">+update()</text></g></g><g transform="translate(-954,-406) scale(1,1)"><g><path fill="none" stroke="none"></path><text fill="#000000" stroke="none" font-family="Arial" font-size="13px" font-style="normal" font-weight="normal" text-decoration="none" x="1113" y="528.5">+getObject()</text></g></g><g transform="translate(-954,-406) scale(1,1)"><rect fill="#C0C0C0" stroke="none" x="971" y="643" width="140" height="72" opacity="0.2"></rect></g><g transform="translate(-954,-406) scale(1,1)"><rect fill="#ffffff" stroke="none" x="964" y="636" width="140" height="72"></rect></g><g transform="translate(-954,-406) scale(1,1)"><path fill="none" stroke="#000000" d="M 964 636 L 1104 636 L 1104 708 L 964 708 L 964 636 Z Z" stroke-miterlimit="10"></path></g><g transform="translate(-954,-406) scale(1,1)"><path fill="none" stroke="#000000" d="M 964 676 L 1104 676" stroke-miterlimit="10"></path></g><g transform="translate(-954,-406) scale(1,1)"><path fill="none" stroke="#000000" d="M 964 686 L 1104 686" stroke-miterlimit="10"></path></g><g transform="translate(-954,-406) scale(1,1)"><g><path fill="none" stroke="none"></path><text fill="#000000" stroke="none" font-family="Arial" font-size="13px" font-style="normal" font-weight="bold" text-decoration="none" x="1013.5" y="655.5">Smoke</text></g></g><g transform="translate(-954,-406) scale(1,1)"><g><path fill="none" stroke="none"></path><text fill="#000000" stroke="none" font-family="Arial" font-size="13px" font-style="normal" font-weight="normal" text-decoration="none" x="993.5" y="670.5">(from Particle)</text></g></g><g transform="translate(-954,-406) scale(1,1)"><g><path fill="none" stroke="none"></path><text fill="#000000" stroke="none" font-family="Arial" font-size="13px" font-style="normal" font-weight="normal" text-decoration="none" x="969" y="703.5">+createParticleGroup()</text></g></g><g transform="translate(-954,-406) scale(1,1)"><rect fill="#C0C0C0" stroke="none" x="1115" y="727" width="140" height="72" opacity="0.2"></rect></g><g transform="translate(-954,-406) scale(1,1)"><rect fill="#ffffff" stroke="none" x="1108" y="720" width="140" height="72"></rect></g><g transform="translate(-954,-406) scale(1,1)"><path fill="none" stroke="#000000" d="M 1108 720 L 1248 720 L 1248 792 L 1108 792 L 1108 720 Z Z" stroke-miterlimit="10"></path></g><g transform="translate(-954,-406) scale(1,1)"><path fill="none" stroke="#000000" d="M 1108 760 L 1248 760" stroke-miterlimit="10"></path></g><g transform="translate(-954,-406) scale(1,1)"><path fill="none" stroke="#000000" d="M 1108 770 L 1248 770" stroke-miterlimit="10"></path></g><g transform="translate(-954,-406) scale(1,1)"><g><path fill="none" stroke="none"></path><text fill="#000000" stroke="none" font-family="Arial" font-size="13px" font-style="normal" font-weight="bold" text-decoration="none" x="1145.5" y="739.5">SmokeTrail</text></g></g><g transform="translate(-954,-406) scale(1,1)"><g><path fill="none" stroke="none"></path><text fill="#000000" stroke="none" font-family="Arial" font-size="13px" font-style="normal" font-weight="normal" text-decoration="none" x="1137.5" y="754.5">(from Particle)</text></g></g><g transform="translate(-954,-406) scale(1,1)"><g><path fill="none" stroke="none"></path><text fill="#000000" stroke="none" font-family="Arial" font-size="13px" font-style="normal" font-weight="normal" text-decoration="none" x="1113" y="787.5">+createParticleGroup()</text></g></g><g transform="translate(-954,-406) scale(1,1)"><rect fill="#C0C0C0" stroke="none" x="1271" y="631" width="145" height="72" opacity="0.2"></rect></g><g transform="translate(-954,-406) scale(1,1)"><rect fill="#ffffff" stroke="none" x="1264" y="624" width="145" height="72"></rect></g><g transform="translate(-954,-406) scale(1,1)"><path fill="none" stroke="#000000" d="M 1264 624 L 1409 624 L 1409 696 L 1264 696 L 1264 624 Z Z" stroke-miterlimit="10"></path></g><g transform="translate(-954,-406) scale(1,1)"><path fill="none" stroke="#000000" d="M 1264 664 L 1409 664" stroke-miterlimit="10"></path></g><g transform="translate(-954,-406) scale(1,1)"><path fill="none" stroke="#000000" d="M 1264 674 L 1409 674" stroke-miterlimit="10"></path></g><g transform="translate(-954,-406) scale(1,1)"><g><path fill="none" stroke="none"></path><text fill="#000000" stroke="none" font-family="Arial" font-size="13px" font-style="normal" font-weight="bold" text-decoration="none" x="1316.5" y="643.5">Splash</text></g></g><g transform="translate(-954,-406) scale(1,1)"><g><path fill="none" stroke="none"></path><text fill="#000000" stroke="none" font-family="Arial" font-size="13px" font-style="normal" font-weight="normal" text-decoration="none" x="1296" y="658.5">(from Particle)</text></g></g><g transform="translate(-954,-406) scale(1,1)"><g><path fill="none" stroke="none"></path><text fill="#000000" stroke="none" font-family="Arial" font-size="13px" font-style="normal" font-weight="normal" text-decoration="none" x="1269" y="691.5">+createParticleGRoup()</text></g></g><g transform="translate(-954,-406) scale(1,1)"><path fill="none" stroke="#000000" d="M 1061 635 L 1134 534" stroke-miterlimit="10"></path></g><g transform="translate(-954,-406) scale(1,1)"><path fill="#FFFFFF" stroke="none" d="M 1128.917100887983 555.404769015737 L 1134 534 L 1115.2703902490464 545.541304890565"></path></g><g transform="translate(-954,-406) scale(1,1)"><path fill="none" stroke="#000000" d="M 1128.917100887983 555.404769015737 L 1134 534 L 1115.2703902490464 545.541304890565 L 1128.917100887983 555.404769015737" stroke-miterlimit="10"></path></g><g transform="translate(-954,-406) scale(1,1)"><path fill="none" stroke="#000000" d="M 1178 719 L 1178 534" stroke-miterlimit="10"></path></g><g transform="translate(-954,-406) scale(1,1)"><path fill="#FFFFFF" stroke="none" d="M 1186.419035512032 554.3253497152483 L 1178 534 L 1169.580964487968 554.3253497152483"></path></g><g transform="translate(-954,-406) scale(1,1)"><path fill="none" stroke="#000000" d="M 1186.419035512032 554.3253497152483 L 1178 534 L 1169.580964487968 554.3253497152483 L 1186.419035512032 554.3253497152483" stroke-miterlimit="10"></path></g><g transform="translate(-954,-406) scale(1,1)"><path fill="none" stroke="#000000" d="M 1305 623 L 1229 534" stroke-miterlimit="10"></path></g><g transform="translate(-954,-406) scale(1,1)"><path fill="#FFFFFF" stroke="none" d="M 1248.601288096592 543.9894697033624 L 1229 534 L 1235.7965819653864 554.9238255007966"></path></g><g transform="translate(-954,-406) scale(1,1)"><path fill="none" stroke="#000000" d="M 1248.601288096592 543.9894697033624 L 1229 534 L 1235.7965819653864 554.9238255007966 L 1248.601288096592 543.9894697033624" stroke-miterlimit="10"></path></g></g></svg>