<svg version="1.1" xmlns="http://www.w3.org/2000/svg" xmlns:xlink="http://www.w3.org/1999/xlink" width="742" height="532"><defs></defs><g><g transform="translate(-122,-258) scale(1,1)"><rect fill="#C0C0C0" stroke="none" x="139" y="275" width="354" height="175" opacity="0.2"></rect></g><g transform="translate(-122,-258) scale(1,1)"><rect fill="#ffffff" stroke="none" x="132" y="268" width="354" height="175"></rect></g><g transform="translate(-122,-258) scale(1,1)"><path fill="none" stroke="#000000" d="M 132 268 L 486 268 L 486 443 L 132 443 L 132 268 Z Z" stroke-miterlimit="10"></path></g><g transform="translate(-122,-258) scale(1,1)"><path fill="none" stroke="#000000" d="M 132 306 L 486 306" stroke-miterlimit="10"></path></g><g transform="translate(-122,-258) scale(1,1)"><path fill="none" stroke="#000000" d="M 132 316 L 486 316" stroke-miterlimit="10"></path></g><g transform="translate(-122,-258) scale(1,1)"><g><path fill="none" stroke="none"></path><text fill="#000000" stroke="none" font-family="Arial" font-size="13px" font-style="normal" font-weight="normal" text-decoration="none" x="276" y="285.5">«singleton»</text></g></g><g transform="translate(-122,-258) scale(1,1)"><g><path fill="none" stroke="none"></path><text fill="#000000" stroke="none" font-family="Arial" font-size="13px" font-style="italic" font-weight="bold" text-decoration="none" x="298" y="300.5">API</text></g></g><g transform="translate(-122,-258) scale(1,1)"><g><path fill="none" stroke="none"></path><text fill="#000000" stroke="none" font-family="Arial" font-size="13px" font-style="normal" font-weight="normal" text-decoration="none" x="137" y="333.5">+user.me.games.get(): $.Deffered</text></g></g><g transform="translate(-122,-258) scale(1,1)"><g><path fill="none" stroke="none"></path><text fill="#000000" stroke="none" font-family="Arial" font-size="13px" font-style="normal" font-weight="normal" text-decoration="none" x="137" y="348.5">+user.me.games.delete(): $.Deffered</text></g></g><g transform="translate(-122,-258) scale(1,1)"><g><path fill="none" stroke="none"></path><text fill="#000000" stroke="none" font-family="Arial" font-size="13px" font-style="normal" font-weight="normal" text-decoration="none" x="137" y="363.5">+games.get(id: Number): $.Deffered</text></g></g><g transform="translate(-122,-258) scale(1,1)"><g><path fill="none" stroke="none"></path><text fill="#000000" stroke="none" font-family="Arial" font-size="13px" font-style="normal" font-weight="normal" text-decoration="none" x="137" y="378.5">+games.ai.get(): $.Deffered</text></g></g><g transform="translate(-122,-258) scale(1,1)"><g><path fill="none" stroke="none"></path><text fill="#000000" stroke="none" font-family="Arial" font-size="13px" font-style="normal" font-weight="normal" text-decoration="none" x="137" y="393.5">+games.id(id: Number): Function</text></g></g><g transform="translate(-122,-258) scale(1,1)"><g><path fill="none" stroke="none"></path><text fill="#000000" stroke="none" font-family="Arial" font-size="13px" font-style="normal" font-weight="normal" text-decoration="none" x="137" y="408.5">+games.id.gameboards.post(gameboard: Board): $.Deffered</text></g></g><g transform="translate(-122,-258) scale(1,1)"><g><path fill="none" stroke="none"></path><text fill="#000000" stroke="none" font-family="Arial" font-size="13px" font-style="normal" font-weight="normal" text-decoration="none" x="137" y="423.5">+games.id.gameboards.shots.post(tile: Cell): $.Deffered</text></g></g><g transform="translate(-122,-258) scale(1,1)"><g><path fill="none" stroke="none"></path><text fill="#000000" stroke="none" font-family="Arial" font-size="13px" font-style="normal" font-weight="normal" text-decoration="none" x="137" y="438.5">+ships.get(): $.Deffered</text></g></g><g transform="translate(-122,-258) scale(1,1)"><rect fill="#C0C0C0" stroke="none" x="687" y="275" width="174" height="130" opacity="0.2"></rect></g><g transform="translate(-122,-258) scale(1,1)"><rect fill="#ffffff" stroke="none" x="680" y="268" width="174" height="130"></rect></g><g transform="translate(-122,-258) scale(1,1)"><path fill="none" stroke="#000000" d="M 680 268 L 854 268 L 854 398 L 680 398 L 680 268 Z Z" stroke-miterlimit="10"></path></g><g transform="translate(-122,-258) scale(1,1)"><path fill="none" stroke="#000000" d="M 680 306 L 854 306" stroke-miterlimit="10"></path></g><g transform="translate(-122,-258) scale(1,1)"><path fill="none" stroke="#000000" d="M 680 316 L 854 316" stroke-miterlimit="10"></path></g><g transform="translate(-122,-258) scale(1,1)"><g><path fill="none" stroke="none"></path><text fill="#000000" stroke="none" font-family="Arial" font-size="13px" font-style="normal" font-weight="normal" text-decoration="none" x="734" y="285.5">«singleton»</text></g></g><g transform="translate(-122,-258) scale(1,1)"><g><path fill="none" stroke="none"></path><text fill="#000000" stroke="none" font-family="Arial" font-size="13px" font-style="italic" font-weight="bold" text-decoration="none" x="749" y="300.5">Lobby</text></g></g><g transform="translate(-122,-258) scale(1,1)"><g><path fill="none" stroke="none"></path><text fill="#000000" stroke="none" font-family="Arial" font-size="13px" font-style="normal" font-weight="normal" text-decoration="none" x="685" y="333.5">+getGames(): $.Deffered</text></g></g><g transform="translate(-122,-258) scale(1,1)"><g><path fill="none" stroke="none"></path><text fill="#000000" stroke="none" font-family="Arial" font-size="13px" font-style="normal" font-weight="normal" text-decoration="none" x="685" y="348.5">+getGame(): $.Deffered</text></g></g><g transform="translate(-122,-258) scale(1,1)"><g><path fill="none" stroke="none"></path><text fill="#000000" stroke="none" font-family="Arial" font-size="13px" font-style="normal" font-weight="normal" text-decoration="none" x="685" y="363.5">+clearGames(): $.Deffered</text></g></g><g transform="translate(-122,-258) scale(1,1)"><g><path fill="none" stroke="none"></path><text fill="#000000" stroke="none" font-family="Arial" font-size="13px" font-style="normal" font-weight="normal" text-decoration="none" x="685" y="378.5">+createAiGame(): $.Deffered</text></g></g><g transform="translate(-122,-258) scale(1,1)"><g><path fill="none" stroke="none"></path><text fill="#000000" stroke="none" font-family="Arial" font-size="13px" font-style="normal" font-weight="normal" text-decoration="none" x="685" y="393.5">+createGame(): $.Deffered</text></g></g><g transform="translate(-122,-258) scale(1,1)"><rect fill="#C0C0C0" stroke="none" x="143" y="543" width="328" height="85" opacity="0.2"></rect></g><g transform="translate(-122,-258) scale(1,1)"><rect fill="#ffffff" stroke="none" x="136" y="536" width="328" height="85"></rect></g><g transform="translate(-122,-258) scale(1,1)"><path fill="none" stroke="#000000" d="M 136 536 L 464 536 L 464 621 L 136 621 L 136 536 Z Z" stroke-miterlimit="10"></path></g><g transform="translate(-122,-258) scale(1,1)"><path fill="none" stroke="#000000" d="M 136 574 L 464 574" stroke-miterlimit="10"></path></g><g transform="translate(-122,-258) scale(1,1)"><path fill="none" stroke="#000000" d="M 136 584 L 464 584" stroke-miterlimit="10"></path></g><g transform="translate(-122,-258) scale(1,1)"><g><path fill="none" stroke="none"></path><text fill="#000000" stroke="none" font-family="Arial" font-size="13px" font-style="normal" font-weight="normal" text-decoration="none" x="267" y="553.5">«singleton»</text></g></g><g transform="translate(-122,-258) scale(1,1)"><g><path fill="none" stroke="none"></path><text fill="#000000" stroke="none" font-family="Arial" font-size="13px" font-style="italic" font-weight="bold" text-decoration="none" x="283" y="568.5">Setup</text></g></g><g transform="translate(-122,-258) scale(1,1)"><g><path fill="none" stroke="none"></path><text fill="#000000" stroke="none" font-family="Arial" font-size="13px" font-style="normal" font-weight="normal" text-decoration="none" x="141" y="601.5">+getShips(): $.Deffered</text></g></g><g transform="translate(-122,-258) scale(1,1)"><g><path fill="none" stroke="none"></path><text fill="#000000" stroke="none" font-family="Arial" font-size="13px" font-style="normal" font-weight="normal" text-decoration="none" x="141" y="616.5">+saveBoard(gameId: Number, board: Board): $.Deffered</text></g></g><g transform="translate(-122,-258) scale(1,1)"><rect fill="#C0C0C0" stroke="none" x="507" y="543" width="354" height="85" opacity="0.2"></rect></g><g transform="translate(-122,-258) scale(1,1)"><rect fill="#ffffff" stroke="none" x="500" y="536" width="354" height="85"></rect></g><g transform="translate(-122,-258) scale(1,1)"><path fill="none" stroke="#000000" d="M 500 536 L 854 536 L 854 621 L 500 621 L 500 536 Z Z" stroke-miterlimit="10"></path></g><g transform="translate(-122,-258) scale(1,1)"><path fill="none" stroke="#000000" d="M 500 574 L 854 574" stroke-miterlimit="10"></path></g><g transform="translate(-122,-258) scale(1,1)"><path fill="none" stroke="#000000" d="M 500 584 L 854 584" stroke-miterlimit="10"></path></g><g transform="translate(-122,-258) scale(1,1)"><g><path fill="none" stroke="none"></path><text fill="#000000" stroke="none" font-family="Arial" font-size="13px" font-style="normal" font-weight="normal" text-decoration="none" x="644" y="553.5">«singleton»</text></g></g><g transform="translate(-122,-258) scale(1,1)"><g><path fill="none" stroke="none"></path><text fill="#000000" stroke="none" font-family="Arial" font-size="13px" font-style="italic" font-weight="bold" text-decoration="none" x="656" y="568.5">Started</text></g></g><g transform="translate(-122,-258) scale(1,1)"><g><path fill="none" stroke="none"></path><text fill="#000000" stroke="none" font-family="Arial" font-size="13px" font-style="normal" font-weight="normal" text-decoration="none" x="505" y="601.5">+shoot(gameId: Number, x: Number, y: Number): $.Deffered</text></g></g><g transform="translate(-122,-258) scale(1,1)"><g><path fill="none" stroke="none"></path><text fill="#000000" stroke="none" font-family="Arial" font-size="13px" font-style="normal" font-weight="normal" text-decoration="none" x="505" y="616.5">+getGame(gameId: Number): $.Deffered</text></g></g><g transform="translate(-122,-258) scale(1,1)"><path fill="none" stroke="#000000" d="M 302 535 L 305 444" stroke-miterlimit="10"></path></g><g transform="translate(-122,-258) scale(1,1)"><path fill="#FFFFFF" stroke="none" d="M 308.87238078975827 454.2958567889764 L 305 444 L 300.45791656216386 454.0184568693854 L 304.2751190772054 465.988054658104"></path></g><g transform="translate(-122,-258) scale(1,1)"><path fill="none" stroke="#000000" d="M 308.87238078975827 454.2958567889764 L 305 444 L 300.45791656216386 454.0184568693854 L 304.2751190772054 465.988054658104 L 308.87238078975827 454.2958567889764" stroke-miterlimit="10"></path></g><g transform="translate(-122,-258) scale(1,1)"><path fill="none" stroke="#000000" d="M 382 535 L 679 379" stroke-miterlimit="10"></path></g><g transform="translate(-122,-258) scale(1,1)"><path fill="#FFFFFF" stroke="none" d="M 671.9603884966742 387.45244756755363 L 679 379 L 668.0454599764386 379.99902596172046 L 659.5232707364179 389.2302012293563"></path></g><g transform="translate(-122,-258) scale(1,1)"><path fill="none" stroke="#000000" d="M 671.9603884966742 387.45244756755363 L 679 379 L 668.0454599764386 379.99902596172046 L 659.5232707364179 389.2302012293563 L 671.9603884966742 387.45244756755363" stroke-miterlimit="10"></path></g><g transform="translate(-122,-258) scale(1,1)"><path fill="none" stroke="#000000" d="M 693 535 L 743 399" stroke-miterlimit="10"></path></g><g transform="translate(-122,-258) scale(1,1)"><path fill="#FFFFFF" stroke="none" d="M 743.4441731350163 409.99102862457056 L 743 399 L 735.5422469631416 407.0859087084402 L 735.4085558181185 419.64872817471763"></path></g><g transform="translate(-122,-258) scale(1,1)"><path fill="none" stroke="#000000" d="M 743.4441731350163 409.99102862457056 L 743 399 L 735.5422469631416 407.0859087084402 L 735.4085558181185 419.64872817471763 L 743.4441731350163 409.99102862457056" stroke-miterlimit="10"></path></g><g transform="translate(-122,-258) scale(1,1)"><path fill="none" stroke="#000000" d="M 606 535 L 456 444" stroke-miterlimit="10"></path></g><g transform="translate(-122,-258) scale(1,1)"><path fill="#FFFFFF" stroke="none" d="M 466.87215785016036 445.6721793208853 L 456 444 L 462.5053672048211 452.87018587913684 L 474.8092975798976 455.41097386513786"></path></g><g transform="translate(-122,-258) scale(1,1)"><path fill="none" stroke="#000000" d="M 466.87215785016036 445.6721793208853 L 456 444 L 462.5053672048211 452.87018587913684 L 474.8092975798976 455.41097386513786 L 466.87215785016036 445.6721793208853" stroke-miterlimit="10"></path></g><g transform="translate(-122,-258) scale(1,1)"><path fill="none" stroke="#000000" d="M 679 337 L 487 346" stroke-miterlimit="10"></path></g><g transform="translate(-122,-258) scale(1,1)"><path fill="#FFFFFF" stroke="none" d="M 496.95442345744505 341.319246467729 L 487 346 L 497.34863289329354 349.7290477658301 L 508.97586983613644 344.9698811014311"></path></g><g transform="translate(-122,-258) scale(1,1)"><path fill="none" stroke="#000000" d="M 496.95442345744505 341.319246467729 L 487 346 L 497.34863289329354 349.7290477658301 L 508.97586983613644 344.9698811014311 L 496.95442345744505 341.319246467729" stroke-miterlimit="10"></path></g><g transform="translate(-122,-258) scale(1,1)"><rect fill="#C0C0C0" stroke="none" x="235" y="715" width="88" height="72" opacity="0.2"></rect></g><g transform="translate(-122,-258) scale(1,1)"><rect fill="#ffffff" stroke="none" x="228" y="708" width="88" height="72"></rect></g><g transform="translate(-122,-258) scale(1,1)"><path fill="none" stroke="#000000" d="M 228 708 L 316 708 L 316 780 L 228 780 L 228 708 Z Z" stroke-miterlimit="10"></path></g><g transform="translate(-122,-258) scale(1,1)"><path fill="none" stroke="#000000" d="M 228 746 L 316 746" stroke-miterlimit="10"></path></g><g transform="translate(-122,-258) scale(1,1)"><path fill="none" stroke="#000000" d="M 228 756 L 316 756" stroke-miterlimit="10"></path></g><g transform="translate(-122,-258) scale(1,1)"><g><path fill="none" stroke="none"></path><text fill="#000000" stroke="none" font-family="Arial" font-size="13px" font-style="normal" font-weight="normal" text-decoration="none" x="239" y="725.5">«singleton»</text></g></g><g transform="translate(-122,-258) scale(1,1)"><g><path fill="none" stroke="none"></path><text fill="#000000" stroke="none" font-family="Arial" font-size="13px" font-style="normal" font-weight="bold" text-decoration="none" x="255.5" y="740.5">Audio</text></g></g><g transform="translate(-122,-258) scale(1,1)"><g><path fill="none" stroke="none"></path><text fill="#000000" stroke="none" font-family="Arial" font-size="13px" font-style="normal" font-weight="normal" text-decoration="none" x="233" y="773.5">+play()</text></g></g><g transform="translate(-122,-258) scale(1,1)"><g><path fill="none" stroke="none"></path><text fill="#000000" stroke="none" font-family="Arial" font-size="13px" font-style="normal" font-weight="normal" text-decoration="none" x="233" y="788.5">+stop()</text></g></g></g></svg>