<svg version="1.1" xmlns="http://www.w3.org/2000/svg" xmlns:xlink="http://www.w3.org/1999/xlink" width="360" height="394"><defs></defs><g><g transform="translate(-652,-322) scale(1,1)"><rect fill="#C0C0C0" stroke="none" x="669" y="339" width="77" height="117" opacity="0.2"></rect></g><g transform="translate(-652,-322) scale(1,1)"><rect fill="#ffffff" stroke="none" x="662" y="332" width="77" height="117"></rect></g><g transform="translate(-652,-322) scale(1,1)"><path fill="none" stroke="#000000" d="M 662 332 L 739 332 L 739 449 L 662 449 L 662 332 Z Z" stroke-miterlimit="10"></path></g><g transform="translate(-652,-322) scale(1,1)"><path fill="none" stroke="#000000" d="M 662 372 L 739 372" stroke-miterlimit="10"></path></g><g transform="translate(-652,-322) scale(1,1)"><g><path fill="none" stroke="none"></path><text fill="#000000" stroke="none" font-family="Arial" font-size="13px" font-style="italic" font-weight="bold" text-decoration="none" x="685" y="351.5">State</text></g></g><g transform="translate(-652,-322) scale(1,1)"><g><path fill="none" stroke="none"></path><text fill="#000000" stroke="none" font-family="Arial" font-size="13px" font-style="normal" font-weight="normal" text-decoration="none" x="666.5" y="366.5">(from State)</text></g></g><g transform="translate(-652,-322) scale(1,1)"><g><path fill="none" stroke="none"></path><text fill="#000000" stroke="none" font-family="Arial" font-size="13px" font-style="normal" font-weight="normal" text-decoration="none" x="667" y="389.5">+show()</text></g></g><g transform="translate(-652,-322) scale(1,1)"><g><path fill="none" stroke="none"></path><text fill="#000000" stroke="none" font-family="Arial" font-size="13px" font-style="normal" font-weight="normal" text-decoration="none" x="667" y="404.5">+hide()</text></g></g><g transform="translate(-652,-322) scale(1,1)"><g><path fill="none" stroke="none"></path><text fill="#000000" stroke="none" font-family="Arial" font-size="13px" font-style="normal" font-weight="normal" text-decoration="none" x="667" y="419.5">+update()</text></g></g><g transform="translate(-652,-322) scale(1,1)"><g><path fill="none" stroke="none"></path><text fill="#000000" stroke="none" font-family="Arial" font-size="13px" font-style="normal" font-weight="normal" text-decoration="none" x="667" y="434.5">+render()</text></g></g><g transform="translate(-652,-322) scale(1,1)"><rect fill="#C0C0C0" stroke="none" x="679" y="551" width="132" height="162" opacity="0.2"></rect></g><g transform="translate(-652,-322) scale(1,1)"><rect fill="#ffffff" stroke="none" x="672" y="544" width="132" height="162"></rect></g><g transform="translate(-652,-322) scale(1,1)"><path fill="none" stroke="#000000" d="M 672 544 L 804 544 L 804 706 L 672 706 L 672 544 Z Z" stroke-miterlimit="10"></path></g><g transform="translate(-652,-322) scale(1,1)"><path fill="none" stroke="#000000" d="M 672 584 L 804 584" stroke-miterlimit="10"></path></g><g transform="translate(-652,-322) scale(1,1)"><path fill="none" stroke="#000000" d="M 672 594 L 804 594" stroke-miterlimit="10"></path></g><g transform="translate(-652,-322) scale(1,1)"><g><path fill="none" stroke="none"></path><text fill="#000000" stroke="none" font-family="Arial" font-size="13px" font-style="normal" font-weight="bold" text-decoration="none" x="723" y="563.5">Done</text></g></g><g transform="translate(-652,-322) scale(1,1)"><g><path fill="none" stroke="none"></path><text fill="#000000" stroke="none" font-family="Arial" font-size="13px" font-style="normal" font-weight="normal" text-decoration="none" x="704" y="578.5">(from State)</text></g></g><g transform="translate(-652,-322) scale(1,1)"><g><path fill="none" stroke="none"></path><text fill="#000000" stroke="none" font-family="Arial" font-size="13px" font-style="normal" font-weight="normal" text-decoration="none" x="677" y="611.5">+show()</text></g></g><g transform="translate(-652,-322) scale(1,1)"><g><path fill="none" stroke="none"></path><text fill="#000000" stroke="none" font-family="Arial" font-size="13px" font-style="normal" font-weight="normal" text-decoration="none" x="677" y="626.5">+hide()</text></g></g><g transform="translate(-652,-322) scale(1,1)"><g><path fill="none" stroke="none"></path><text fill="#000000" stroke="none" font-family="Arial" font-size="13px" font-style="normal" font-weight="normal" text-decoration="none" x="677" y="641.5">+registerListeners()</text></g></g><g transform="translate(-652,-322) scale(1,1)"><g><path fill="none" stroke="none"></path><text fill="#000000" stroke="none" font-family="Arial" font-size="13px" font-style="normal" font-weight="normal" text-decoration="none" x="677" y="656.5">+createEnvironment()</text></g></g><g transform="translate(-652,-322) scale(1,1)"><g><path fill="none" stroke="none"></path><text fill="#000000" stroke="none" font-family="Arial" font-size="13px" font-style="normal" font-weight="normal" text-decoration="none" x="677" y="671.5">+update()</text></g></g><g transform="translate(-652,-322) scale(1,1)"><g><path fill="none" stroke="none"></path><text fill="#000000" stroke="none" font-family="Arial" font-size="13px" font-style="normal" font-weight="normal" text-decoration="none" x="677" y="686.5">+render()</text></g></g><g transform="translate(-652,-322) scale(1,1)"><g><path fill="none" stroke="none"></path><text fill="#000000" stroke="none" font-family="Arial" font-size="13px" font-style="normal" font-weight="normal" text-decoration="none" x="677" y="701.5">+onBack()</text></g></g><g transform="translate(-652,-322) scale(1,1)"><path fill="none" stroke="#000000" d="M 725 543 L 710 450" stroke-miterlimit="10"></path></g><g transform="translate(-652,-322) scale(1,1)"><path fill="#FFFFFF" stroke="none" d="M 721.5480730593404 468.7254374746263 L 710 450 L 704.9248369509043 471.40660458889016"></path></g><g transform="translate(-652,-322) scale(1,1)"><path fill="none" stroke="#000000" d="M 721.5480730593404 468.7254374746263 L 710 450 L 704.9248369509043 471.40660458889016 L 721.5480730593404 468.7254374746263" stroke-miterlimit="10"></path></g><g transform="translate(-652,-322) scale(1,1)"><rect fill="#C0C0C0" stroke="none" x="911" y="559" width="98" height="117" opacity="0.2"></rect></g><g transform="translate(-652,-322) scale(1,1)"><rect fill="#ffffff" stroke="none" x="904" y="552" width="98" height="117"></rect></g><g transform="translate(-652,-322) scale(1,1)"><path fill="none" stroke="#000000" d="M 904 552 L 1002 552 L 1002 669 L 904 669 L 904 552 Z Z" stroke-miterlimit="10"></path></g><g transform="translate(-652,-322) scale(1,1)"><path fill="none" stroke="#000000" d="M 904 592 L 1002 592" stroke-miterlimit="10"></path></g><g transform="translate(-652,-322) scale(1,1)"><path fill="none" stroke="#000000" d="M 904 602 L 1002 602" stroke-miterlimit="10"></path></g><g transform="translate(-652,-322) scale(1,1)"><g><path fill="none" stroke="none"></path><text fill="#000000" stroke="none" font-family="Arial" font-size="13px" font-style="normal" font-weight="bold" text-decoration="none" x="938" y="571.5">Done</text></g></g><g transform="translate(-652,-322) scale(1,1)"><g><path fill="none" stroke="none"></path><text fill="#000000" stroke="none" font-family="Arial" font-size="13px" font-style="normal" font-weight="normal" text-decoration="none" x="920.5" y="586.5">(from View)</text></g></g><g transform="translate(-652,-322) scale(1,1)"><g><path fill="none" stroke="none"></path><text fill="#000000" stroke="none" font-family="Arial" font-size="13px" font-style="normal" font-weight="normal" text-decoration="none" x="909" y="619.5">+onBackClick()</text></g></g><g transform="translate(-652,-322) scale(1,1)"><g><path fill="none" stroke="none"></path><text fill="#000000" stroke="none" font-family="Arial" font-size="13px" font-style="normal" font-weight="normal" text-decoration="none" x="909" y="634.5">+show()</text></g></g><g transform="translate(-652,-322) scale(1,1)"><g><path fill="none" stroke="none"></path><text fill="#000000" stroke="none" font-family="Arial" font-size="13px" font-style="normal" font-weight="normal" text-decoration="none" x="909" y="649.5">+hide()</text></g></g><g transform="translate(-652,-322) scale(1,1)"><g><path fill="none" stroke="none"></path><text fill="#000000" stroke="none" font-family="Arial" font-size="13px" font-style="normal" font-weight="normal" text-decoration="none" x="909" y="664.5">+setGame()</text></g></g><g transform="translate(-652,-322) scale(1,1)"><path fill="none" stroke="#000000" d="M 903 613 L 805 620" stroke-miterlimit="10"></path></g><g transform="translate(-652,-322) scale(1,1)"><path fill="#000000" stroke="none" d="M 814.8369327283004 615.0771192885779 L 805 620 L 815.4367641722762 623.474759504238 L 826.9440913962761 618.432564900266"></path></g><g transform="translate(-652,-322) scale(1,1)"><path fill="none" stroke="#000000" d="M 814.8369327283004 615.0771192885779 L 805 620 L 815.4367641722762 623.474759504238 L 826.9440913962761 618.432564900266 L 814.8369327283004 615.0771192885779" stroke-miterlimit="10"></path></g></g></svg>