<svg version="1.1" xmlns="http://www.w3.org/2000/svg" xmlns:xlink="http://www.w3.org/1999/xlink" width="765" height="739"><defs></defs><g><g transform="translate(-78,-154) scale(1,1)"><rect fill="#C0C0C0" stroke="none" x="491" y="383" width="167" height="267" opacity="0.2"></rect></g><g transform="translate(-78,-154) scale(1,1)"><rect fill="#ffffff" stroke="none" x="484" y="376" width="167" height="267"></rect></g><g transform="translate(-78,-154) scale(1,1)"><path fill="none" stroke="#000000" d="M 484 376 L 651 376 L 651 643 L 484 643 L 484 376 Z Z" stroke-miterlimit="10"></path></g><g transform="translate(-78,-154) scale(1,1)"><path fill="none" stroke="#000000" d="M 484 416 L 651 416" stroke-miterlimit="10"></path></g><g transform="translate(-78,-154) scale(1,1)"><path fill="none" stroke="#000000" d="M 484 426 L 651 426" stroke-miterlimit="10"></path></g><g transform="translate(-78,-154) scale(1,1)"><g><path fill="none" stroke="none"></path><text fill="#000000" stroke="none" font-family="Arial" font-size="13px" font-style="normal" font-weight="bold" text-decoration="none" x="546.5" y="395.5">Started</text></g></g><g transform="translate(-78,-154) scale(1,1)"><g><path fill="none" stroke="none"></path><text fill="#000000" stroke="none" font-family="Arial" font-size="13px" font-style="normal" font-weight="normal" text-decoration="none" x="533.5" y="410.5">(from State)</text></g></g><g transform="translate(-78,-154) scale(1,1)"><g><path fill="none" stroke="none"></path><text fill="#000000" stroke="none" font-family="Arial" font-size="13px" font-style="normal" font-weight="normal" text-decoration="none" x="489" y="443.5">+show()</text></g></g><g transform="translate(-78,-154) scale(1,1)"><g><path fill="none" stroke="none"></path><text fill="#000000" stroke="none" font-family="Arial" font-size="13px" font-style="normal" font-weight="normal" text-decoration="none" x="489" y="458.5">+setPlayersTurn()</text></g></g><g transform="translate(-78,-154) scale(1,1)"><g><path fill="none" stroke="none"></path><text fill="#000000" stroke="none" font-family="Arial" font-size="13px" font-style="normal" font-weight="normal" text-decoration="none" x="489" y="473.5">+setEnemyTurn()</text></g></g><g transform="translate(-78,-154) scale(1,1)"><g><path fill="none" stroke="none"></path><text fill="#000000" stroke="none" font-family="Arial" font-size="13px" font-style="normal" font-weight="normal" text-decoration="none" x="489" y="488.5">+hide()</text></g></g><g transform="translate(-78,-154) scale(1,1)"><g><path fill="none" stroke="none"></path><text fill="#000000" stroke="none" font-family="Arial" font-size="13px" font-style="normal" font-weight="normal" text-decoration="none" x="489" y="503.5">+registerEvents()</text></g></g><g transform="translate(-78,-154) scale(1,1)"><g><path fill="none" stroke="none"></path><text fill="#000000" stroke="none" font-family="Arial" font-size="13px" font-style="normal" font-weight="normal" text-decoration="none" x="489" y="518.5">+createEnvironments()</text></g></g><g transform="translate(-78,-154) scale(1,1)"><g><path fill="none" stroke="none"></path><text fill="#000000" stroke="none" font-family="Arial" font-size="13px" font-style="normal" font-weight="normal" text-decoration="none" x="489" y="533.5">+createControls()</text></g></g><g transform="translate(-78,-154) scale(1,1)"><g><path fill="none" stroke="none"></path><text fill="#000000" stroke="none" font-family="Arial" font-size="13px" font-style="normal" font-weight="normal" text-decoration="none" x="489" y="548.5">+createPlayerGrid()</text></g></g><g transform="translate(-78,-154) scale(1,1)"><g><path fill="none" stroke="none"></path><text fill="#000000" stroke="none" font-family="Arial" font-size="13px" font-style="normal" font-weight="normal" text-decoration="none" x="489" y="563.5">+createEnemyGrid()</text></g></g><g transform="translate(-78,-154) scale(1,1)"><g><path fill="none" stroke="none"></path><text fill="#000000" stroke="none" font-family="Arial" font-size="13px" font-style="normal" font-weight="normal" text-decoration="none" x="489" y="578.5">+createCursor()</text></g></g><g transform="translate(-78,-154) scale(1,1)"><g><path fill="none" stroke="none"></path><text fill="#000000" stroke="none" font-family="Arial" font-size="13px" font-style="normal" font-weight="normal" text-decoration="none" x="489" y="593.5">+onDocumentMouseMove()</text></g></g><g transform="translate(-78,-154) scale(1,1)"><g><path fill="none" stroke="none"></path><text fill="#000000" stroke="none" font-family="Arial" font-size="13px" font-style="normal" font-weight="normal" text-decoration="none" x="489" y="608.5">+onDocumentMouseClick()</text></g></g><g transform="translate(-78,-154) scale(1,1)"><g><path fill="none" stroke="none"></path><text fill="#000000" stroke="none" font-family="Arial" font-size="13px" font-style="normal" font-weight="normal" text-decoration="none" x="489" y="623.5">+update()</text></g></g><g transform="translate(-78,-154) scale(1,1)"><g><path fill="none" stroke="none"></path><text fill="#000000" stroke="none" font-family="Arial" font-size="13px" font-style="normal" font-weight="normal" text-decoration="none" x="489" y="638.5">+render()</text></g></g><g transform="translate(-78,-154) scale(1,1)"><rect fill="#C0C0C0" stroke="none" x="494" y="171" width="77" height="117" opacity="0.2"></rect></g><g transform="translate(-78,-154) scale(1,1)"><rect fill="#ffffff" stroke="none" x="487" y="164" width="77" height="117"></rect></g><g transform="translate(-78,-154) scale(1,1)"><path fill="none" stroke="#000000" d="M 487 164 L 564 164 L 564 281 L 487 281 L 487 164 Z Z" stroke-miterlimit="10"></path></g><g transform="translate(-78,-154) scale(1,1)"><path fill="none" stroke="#000000" d="M 487 204 L 564 204" stroke-miterlimit="10"></path></g><g transform="translate(-78,-154) scale(1,1)"><path fill="none" stroke="#000000" d="M 487 214 L 564 214" stroke-miterlimit="10"></path></g><g transform="translate(-78,-154) scale(1,1)"><g><path fill="none" stroke="none"></path><text fill="#000000" stroke="none" font-family="Arial" font-size="13px" font-style="italic" font-weight="bold" text-decoration="none" x="510" y="183.5">State</text></g></g><g transform="translate(-78,-154) scale(1,1)"><g><path fill="none" stroke="none"></path><text fill="#000000" stroke="none" font-family="Arial" font-size="13px" font-style="normal" font-weight="normal" text-decoration="none" x="491.5" y="198.5">(from State)</text></g></g><g transform="translate(-78,-154) scale(1,1)"><g><path fill="none" stroke="none"></path><text fill="#000000" stroke="none" font-family="Arial" font-size="13px" font-style="normal" font-weight="normal" text-decoration="none" x="492" y="231.5">+show()</text></g></g><g transform="translate(-78,-154) scale(1,1)"><g><path fill="none" stroke="none"></path><text fill="#000000" stroke="none" font-family="Arial" font-size="13px" font-style="normal" font-weight="normal" text-decoration="none" x="492" y="246.5">+hide()</text></g></g><g transform="translate(-78,-154) scale(1,1)"><g><path fill="none" stroke="none"></path><text fill="#000000" stroke="none" font-family="Arial" font-size="13px" font-style="normal" font-weight="normal" text-decoration="none" x="492" y="261.5">+update()</text></g></g><g transform="translate(-78,-154) scale(1,1)"><g><path fill="none" stroke="none"></path><text fill="#000000" stroke="none" font-family="Arial" font-size="13px" font-style="normal" font-weight="normal" text-decoration="none" x="492" y="276.5">+render()</text></g></g><g transform="translate(-78,-154) scale(1,1)"><path fill="none" stroke="#000000" d="M 547 375 L 534 282" stroke-miterlimit="10"></path></g><g transform="translate(-78,-154) scale(1,1)"><path fill="#FFFFFF" stroke="none" d="M 545.1517884858745 300.96411383551356 L 534 282 L 528.4758517684346 303.2951587530052"></path></g><g transform="translate(-78,-154) scale(1,1)"><path fill="none" stroke="#000000" d="M 545.1517884858745 300.96411383551356 L 534 282 L 528.4758517684346 303.2951587530052 L 545.1517884858745 300.96411383551356" stroke-miterlimit="10"></path></g><g transform="translate(-78,-154) scale(1,1)"><rect fill="#C0C0C0" stroke="none" x="243" y="327" width="136" height="102" opacity="0.2"></rect></g><g transform="translate(-78,-154) scale(1,1)"><rect fill="#ffffff" stroke="none" x="236" y="320" width="136" height="102"></rect></g><g transform="translate(-78,-154) scale(1,1)"><path fill="none" stroke="#000000" d="M 236 320 L 372 320 L 372 422 L 236 422 L 236 320 Z Z" stroke-miterlimit="10"></path></g><g transform="translate(-78,-154) scale(1,1)"><path fill="none" stroke="#000000" d="M 236 360 L 372 360" stroke-miterlimit="10"></path></g><g transform="translate(-78,-154) scale(1,1)"><path fill="none" stroke="#000000" d="M 236 370 L 372 370" stroke-miterlimit="10"></path></g><g transform="translate(-78,-154) scale(1,1)"><g><path fill="none" stroke="none"></path><text fill="#000000" stroke="none" font-family="Arial" font-size="13px" font-style="normal" font-weight="bold" text-decoration="none" x="265" y="339.5">BoardFactory</text></g></g><g transform="translate(-78,-154) scale(1,1)"><g><path fill="none" stroke="none"></path><text fill="#000000" stroke="none" font-family="Arial" font-size="13px" font-style="normal" font-weight="normal" text-decoration="none" x="263.5" y="354.5">(from Factory)</text></g></g><g transform="translate(-78,-154) scale(1,1)"><g><path fill="none" stroke="none"></path><text fill="#000000" stroke="none" font-family="Arial" font-size="13px" font-style="normal" font-weight="normal" text-decoration="none" x="241" y="387.5">+create()</text></g></g><g transform="translate(-78,-154) scale(1,1)"><g><path fill="none" stroke="none"></path><text fill="#000000" stroke="none" font-family="Arial" font-size="13px" font-style="normal" font-weight="normal" text-decoration="none" x="241" y="402.5">+createPlayerboard()</text></g></g><g transform="translate(-78,-154) scale(1,1)"><g><path fill="none" stroke="none"></path><text fill="#000000" stroke="none" font-family="Arial" font-size="13px" font-style="normal" font-weight="normal" text-decoration="none" x="241" y="417.5">+createEnemyBoard()</text></g></g><g transform="translate(-78,-154) scale(1,1)"><path fill="none" stroke="#000000" d="M 373 407 L 483 465" stroke-miterlimit="10"></path></g><g transform="translate(-78,-154) scale(1,1)"><rect fill="#C0C0C0" stroke="none" x="547" y="775" width="153" height="115" opacity="0.2"></rect></g><g transform="translate(-78,-154) scale(1,1)"><rect fill="#ffffff" stroke="none" x="540" y="768" width="153" height="115"></rect></g><g transform="translate(-78,-154) scale(1,1)"><path fill="none" stroke="#000000" d="M 540 768 L 693 768 L 693 883 L 540 883 L 540 768 Z Z" stroke-miterlimit="10"></path></g><g transform="translate(-78,-154) scale(1,1)"><path fill="none" stroke="#000000" d="M 540 821 L 693 821" stroke-miterlimit="10"></path></g><g transform="translate(-78,-154) scale(1,1)"><path fill="none" stroke="#000000" d="M 540 831 L 693 831" stroke-miterlimit="10"></path></g><g transform="translate(-78,-154) scale(1,1)"><g><path fill="none" stroke="none"></path><text fill="#000000" stroke="none" font-family="Arial" font-size="13px" font-style="normal" font-weight="normal" text-decoration="none" x="583.5" y="785.5">«singleton»</text></g></g><g transform="translate(-78,-154) scale(1,1)"><g><path fill="none" stroke="none"></path><text fill="#000000" stroke="none" font-family="Arial" font-size="13px" font-style="normal" font-weight="bold" text-decoration="none" x="595.5" y="800.5">Started</text></g></g><g transform="translate(-78,-154) scale(1,1)"><g><path fill="none" stroke="none"></path><text fill="#000000" stroke="none" font-family="Arial" font-size="13px" font-style="normal" font-weight="normal" text-decoration="none" x="584" y="815.5">(from View)</text></g></g><g transform="translate(-78,-154) scale(1,1)"><g><path fill="none" stroke="none"></path><text fill="#000000" stroke="none" font-family="Arial" font-size="13px" font-style="normal" font-weight="normal" text-decoration="none" x="545" y="848.5">+show()</text></g></g><g transform="translate(-78,-154) scale(1,1)"><g><path fill="none" stroke="none"></path><text fill="#000000" stroke="none" font-family="Arial" font-size="13px" font-style="normal" font-weight="normal" text-decoration="none" x="545" y="863.5">+hide()</text></g></g><g transform="translate(-78,-154) scale(1,1)"><g><path fill="none" stroke="none"></path><text fill="#000000" stroke="none" font-family="Arial" font-size="13px" font-style="normal" font-weight="normal" text-decoration="none" x="545" y="878.5">+setGame(game: Game)</text></g></g><g transform="translate(-78,-154) scale(1,1)"><path fill="none" stroke="#000000" d="M 607 767 L 588 644" stroke-miterlimit="10"></path></g><g transform="translate(-78,-154) scale(1,1)"><path fill="#FFFFFF" stroke="none" d="M 593.7116197754658 653.4009254619164 L 588 644 L 585.3912669312407 654.6861832183414 L 591.35854036973 665.7421297619367"></path></g><g transform="translate(-78,-154) scale(1,1)"><path fill="none" stroke="#000000" d="M 593.7116197754658 653.4009254619164 L 588 644 L 585.3912669312407 654.6861832183414 L 591.35854036973 665.7421297619367 L 593.7116197754658 653.4009254619164" stroke-miterlimit="10"></path></g><g transform="translate(-78,-154) scale(1,1)"><rect fill="#C0C0C0" stroke="none" x="95" y="783" width="354" height="100" opacity="0.2"></rect></g><g transform="translate(-78,-154) scale(1,1)"><rect fill="#ffffff" stroke="none" x="88" y="776" width="354" height="100"></rect></g><g transform="translate(-78,-154) scale(1,1)"><path fill="none" stroke="#000000" d="M 88 776 L 442 776 L 442 876 L 88 876 L 88 776 Z Z" stroke-miterlimit="10"></path></g><g transform="translate(-78,-154) scale(1,1)"><path fill="none" stroke="#000000" d="M 88 829 L 442 829" stroke-miterlimit="10"></path></g><g transform="translate(-78,-154) scale(1,1)"><path fill="none" stroke="#000000" d="M 88 839 L 442 839" stroke-miterlimit="10"></path></g><g transform="translate(-78,-154) scale(1,1)"><g><path fill="none" stroke="none"></path><text fill="#000000" stroke="none" font-family="Arial" font-size="13px" font-style="normal" font-weight="normal" text-decoration="none" x="232" y="793.5">«singleton»</text></g></g><g transform="translate(-78,-154) scale(1,1)"><g><path fill="none" stroke="none"></path><text fill="#000000" stroke="none" font-family="Arial" font-size="13px" font-style="italic" font-weight="bold" text-decoration="none" x="244" y="808.5">Started</text></g></g><g transform="translate(-78,-154) scale(1,1)"><g><path fill="none" stroke="none"></path><text fill="#000000" stroke="none" font-family="Arial" font-size="13px" font-style="normal" font-weight="normal" text-decoration="none" x="222" y="823.5">(from Services)</text></g></g><g transform="translate(-78,-154) scale(1,1)"><g><path fill="none" stroke="none"></path><text fill="#000000" stroke="none" font-family="Arial" font-size="13px" font-style="normal" font-weight="normal" text-decoration="none" x="93" y="856.5">+shoot(gameId: Number, x: Number, y: Number): $.Deffered</text></g></g><g transform="translate(-78,-154) scale(1,1)"><g><path fill="none" stroke="none"></path><text fill="#000000" stroke="none" font-family="Arial" font-size="13px" font-style="normal" font-weight="normal" text-decoration="none" x="93" y="871.5">+getGame(gameId: Number): $.Deffered</text></g></g><g transform="translate(-78,-154) scale(1,1)"><path fill="none" stroke="#000000" d="M 314 775 L 483 597" stroke-miterlimit="10"></path></g><g transform="translate(-78,-154) scale(1,1)"><rect fill="#C0C0C0" stroke="none" x="319" y="491" width="95" height="100" opacity="0.2"></rect></g><g transform="translate(-78,-154) scale(1,1)"><rect fill="#ffffff" stroke="none" x="312" y="484" width="95" height="100"></rect></g><g transform="translate(-78,-154) scale(1,1)"><path fill="none" stroke="#000000" d="M 312 484 L 407 484 L 407 584 L 312 584 L 312 484 Z Z" stroke-miterlimit="10"></path></g><g transform="translate(-78,-154) scale(1,1)"><path fill="none" stroke="#000000" d="M 312 537 L 407 537" stroke-miterlimit="10"></path></g><g transform="translate(-78,-154) scale(1,1)"><path fill="none" stroke="#000000" d="M 312 547 L 407 547" stroke-miterlimit="10"></path></g><g transform="translate(-78,-154) scale(1,1)"><g><path fill="none" stroke="none"></path><text fill="#000000" stroke="none" font-family="Arial" font-size="13px" font-style="normal" font-weight="normal" text-decoration="none" x="326.5" y="501.5">«singleton»</text></g></g><g transform="translate(-78,-154) scale(1,1)"><g><path fill="none" stroke="none"></path><text fill="#000000" stroke="none" font-family="Arial" font-size="13px" font-style="normal" font-weight="bold" text-decoration="none" x="343" y="516.5">Audio</text></g></g><g transform="translate(-78,-154) scale(1,1)"><g><path fill="none" stroke="none"></path><text fill="#000000" stroke="none" font-family="Arial" font-size="13px" font-style="normal" font-weight="normal" text-decoration="none" x="316.5" y="531.5">(from Services)</text></g></g><g transform="translate(-78,-154) scale(1,1)"><g><path fill="none" stroke="none"></path><text fill="#000000" stroke="none" font-family="Arial" font-size="13px" font-style="normal" font-weight="normal" text-decoration="none" x="317" y="564.5">+play()</text></g></g><g transform="translate(-78,-154) scale(1,1)"><g><path fill="none" stroke="none"></path><text fill="#000000" stroke="none" font-family="Arial" font-size="13px" font-style="normal" font-weight="normal" text-decoration="none" x="317" y="579.5">+stop()</text></g></g><g transform="translate(-78,-154) scale(1,1)"><path fill="none" stroke="#000000" d="M 408 528 L 483 519" stroke-miterlimit="10"></path></g><g transform="translate(-78,-154) scale(1,1)"><rect fill="#C0C0C0" stroke="none" x="763" y="339" width="77" height="59" opacity="0.2"></rect></g><g transform="translate(-78,-154) scale(1,1)"><rect fill="#ffffff" stroke="none" x="756" y="332" width="77" height="59"></rect></g><g transform="translate(-78,-154) scale(1,1)"><path fill="none" stroke="#000000" d="M 756 332 L 833 332 L 833 391 L 756 391 L 756 332 Z Z" stroke-miterlimit="10"></path></g><g transform="translate(-78,-154) scale(1,1)"><path fill="none" stroke="#000000" d="M 756 372 L 833 372" stroke-miterlimit="10"></path></g><g transform="translate(-78,-154) scale(1,1)"><path fill="none" stroke="#000000" d="M 756 382 L 888 382" stroke-miterlimit="10"></path></g><g transform="translate(-78,-154) scale(1,1)"><g><path fill="none" stroke="none"></path><text fill="#000000" stroke="none" font-family="Arial" font-size="13px" font-style="normal" font-weight="bold" text-decoration="none" x="779.5" y="351.5">Done</text></g></g><g transform="translate(-78,-154) scale(1,1)"><g><path fill="none" stroke="none"></path><text fill="#000000" stroke="none" font-family="Arial" font-size="13px" font-style="normal" font-weight="normal" text-decoration="none" x="760.5" y="366.5">(from State)</text></g></g><g transform="translate(-78,-154) scale(1,1)"><g><path fill="none" stroke="none"></path><text fill="#000000" stroke="none" font-family="Arial" font-size="13px" font-style="normal" font-weight="normal" text-decoration="none" x="761" y="399.5">+show()</text></g></g><g transform="translate(-78,-154) scale(1,1)"><g><path fill="none" stroke="none"></path><text fill="#000000" stroke="none" font-family="Arial" font-size="13px" font-style="normal" font-weight="normal" text-decoration="none" x="761" y="414.5">+hide()</text></g></g><g transform="translate(-78,-154) scale(1,1)"><g><path fill="none" stroke="none"></path><text fill="#000000" stroke="none" font-family="Arial" font-size="13px" font-style="normal" font-weight="normal" text-decoration="none" x="761" y="429.5">+registerListeners()</text></g></g><g transform="translate(-78,-154) scale(1,1)"><g><path fill="none" stroke="none"></path><text fill="#000000" stroke="none" font-family="Arial" font-size="13px" font-style="normal" font-weight="normal" text-decoration="none" x="761" y="444.5">+createEnvironment()</text></g></g><g transform="translate(-78,-154) scale(1,1)"><g><path fill="none" stroke="none"></path><text fill="#000000" stroke="none" font-family="Arial" font-size="13px" font-style="normal" font-weight="normal" text-decoration="none" x="761" y="459.5">+update()</text></g></g><g transform="translate(-78,-154) scale(1,1)"><g><path fill="none" stroke="none"></path><text fill="#000000" stroke="none" font-family="Arial" font-size="13px" font-style="normal" font-weight="normal" text-decoration="none" x="761" y="474.5">+render()</text></g></g><g transform="translate(-78,-154) scale(1,1)"><g><path fill="none" stroke="none"></path><text fill="#000000" stroke="none" font-family="Arial" font-size="13px" font-style="normal" font-weight="normal" text-decoration="none" x="761" y="489.5">+onBack()</text></g></g><g transform="translate(-78,-154) scale(1,1)"><path fill="none" stroke="#000000" d="M 652 454 L 755 386" stroke-miterlimit="10"></path></g></g></svg>