<svg version="1.1" xmlns="http://www.w3.org/2000/svg" xmlns:xlink="http://www.w3.org/1999/xlink" width="726" height="736"><defs></defs><g><g transform="translate(-410,-302) scale(1,1)"><rect fill="#C0C0C0" stroke="none" x="651" y="539" width="173" height="252" opacity="0.2"></rect></g><g transform="translate(-410,-302) scale(1,1)"><rect fill="#ffffff" stroke="none" x="644" y="532" width="173" height="252"></rect></g><g transform="translate(-410,-302) scale(1,1)"><path fill="none" stroke="#000000" d="M 644 532 L 817 532 L 817 784 L 644 784 L 644 532 Z Z" stroke-miterlimit="10"></path></g><g transform="translate(-410,-302) scale(1,1)"><path fill="none" stroke="#000000" d="M 644 572 L 817 572" stroke-miterlimit="10"></path></g><g transform="translate(-410,-302) scale(1,1)"><path fill="none" stroke="#000000" d="M 644 582 L 817 582" stroke-miterlimit="10"></path></g><g transform="translate(-410,-302) scale(1,1)"><g><path fill="none" stroke="none"></path><text fill="#000000" stroke="none" font-family="Arial" font-size="13px" font-style="normal" font-weight="bold" text-decoration="none" x="713" y="551.5">Lobby</text></g></g><g transform="translate(-410,-302) scale(1,1)"><g><path fill="none" stroke="none"></path><text fill="#000000" stroke="none" font-family="Arial" font-size="13px" font-style="normal" font-weight="normal" text-decoration="none" x="696.5" y="566.5">(from State)</text></g></g><g transform="translate(-410,-302) scale(1,1)"><g><path fill="none" stroke="none"></path><text fill="#000000" stroke="none" font-family="Arial" font-size="13px" font-style="normal" font-weight="normal" text-decoration="none" x="649" y="599.5">+loadGames()</text></g></g><g transform="translate(-410,-302) scale(1,1)"><g><path fill="none" stroke="none"></path><text fill="#000000" stroke="none" font-family="Arial" font-size="13px" font-style="normal" font-weight="normal" text-decoration="none" x="649" y="614.5">+clearGames()</text></g></g><g transform="translate(-410,-302) scale(1,1)"><g><path fill="none" stroke="none"></path><text fill="#000000" stroke="none" font-family="Arial" font-size="13px" font-style="normal" font-weight="normal" text-decoration="none" x="649" y="629.5">+createAiGame()</text></g></g><g transform="translate(-410,-302) scale(1,1)"><g><path fill="none" stroke="none"></path><text fill="#000000" stroke="none" font-family="Arial" font-size="13px" font-style="normal" font-weight="normal" text-decoration="none" x="649" y="644.5">+createGame()</text></g></g><g transform="translate(-410,-302) scale(1,1)"><g><path fill="none" stroke="none"></path><text fill="#000000" stroke="none" font-family="Arial" font-size="13px" font-style="normal" font-weight="normal" text-decoration="none" x="649" y="659.5">+joinGame(gameId: number)</text></g></g><g transform="translate(-410,-302) scale(1,1)"><g><path fill="none" stroke="none"></path><text fill="#000000" stroke="none" font-family="Arial" font-size="13px" font-style="normal" font-weight="normal" text-decoration="none" x="649" y="674.5">+show()</text></g></g><g transform="translate(-410,-302) scale(1,1)"><g><path fill="none" stroke="none"></path><text fill="#000000" stroke="none" font-family="Arial" font-size="13px" font-style="normal" font-weight="normal" text-decoration="none" x="649" y="689.5">+hide()</text></g></g><g transform="translate(-410,-302) scale(1,1)"><g><path fill="none" stroke="none"></path><text fill="#000000" stroke="none" font-family="Arial" font-size="13px" font-style="normal" font-weight="normal" text-decoration="none" x="649" y="704.5">+createParent()</text></g></g><g transform="translate(-410,-302) scale(1,1)"><g><path fill="none" stroke="none"></path><text fill="#000000" stroke="none" font-family="Arial" font-size="13px" font-style="normal" font-weight="normal" text-decoration="none" x="649" y="719.5">+createEnvironment()</text></g></g><g transform="translate(-410,-302) scale(1,1)"><g><path fill="none" stroke="none"></path><text fill="#000000" stroke="none" font-family="Arial" font-size="13px" font-style="normal" font-weight="normal" text-decoration="none" x="649" y="734.5">+loadBattleship()</text></g></g><g transform="translate(-410,-302) scale(1,1)"><g><path fill="none" stroke="none"></path><text fill="#000000" stroke="none" font-family="Arial" font-size="13px" font-style="normal" font-weight="normal" text-decoration="none" x="649" y="749.5">+loadLogo()</text></g></g><g transform="translate(-410,-302) scale(1,1)"><g><path fill="none" stroke="none"></path><text fill="#000000" stroke="none" font-family="Arial" font-size="13px" font-style="normal" font-weight="normal" text-decoration="none" x="649" y="764.5">+update()</text></g></g><g transform="translate(-410,-302) scale(1,1)"><g><path fill="none" stroke="none"></path><text fill="#000000" stroke="none" font-family="Arial" font-size="13px" font-style="normal" font-weight="normal" text-decoration="none" x="649" y="779.5">+render()</text></g></g><g transform="translate(-410,-302) scale(1,1)"><rect fill="#C0C0C0" stroke="none" x="699" y="319" width="77" height="117" opacity="0.2"></rect></g><g transform="translate(-410,-302) scale(1,1)"><rect fill="#ffffff" stroke="none" x="692" y="312" width="77" height="117"></rect></g><g transform="translate(-410,-302) scale(1,1)"><path fill="none" stroke="#000000" d="M 692 312 L 769 312 L 769 429 L 692 429 L 692 312 Z Z" stroke-miterlimit="10"></path></g><g transform="translate(-410,-302) scale(1,1)"><path fill="none" stroke="#000000" d="M 692 352 L 769 352" stroke-miterlimit="10"></path></g><g transform="translate(-410,-302) scale(1,1)"><path fill="none" stroke="#000000" d="M 692 362 L 769 362" stroke-miterlimit="10"></path></g><g transform="translate(-410,-302) scale(1,1)"><g><path fill="none" stroke="none"></path><text fill="#000000" stroke="none" font-family="Arial" font-size="13px" font-style="italic" font-weight="bold" text-decoration="none" x="715" y="331.5">State</text></g></g><g transform="translate(-410,-302) scale(1,1)"><g><path fill="none" stroke="none"></path><text fill="#000000" stroke="none" font-family="Arial" font-size="13px" font-style="normal" font-weight="normal" text-decoration="none" x="696.5" y="346.5">(from State)</text></g></g><g transform="translate(-410,-302) scale(1,1)"><g><path fill="none" stroke="none"></path><text fill="#000000" stroke="none" font-family="Arial" font-size="13px" font-style="normal" font-weight="normal" text-decoration="none" x="697" y="379.5">+show()</text></g></g><g transform="translate(-410,-302) scale(1,1)"><g><path fill="none" stroke="none"></path><text fill="#000000" stroke="none" font-family="Arial" font-size="13px" font-style="normal" font-weight="normal" text-decoration="none" x="697" y="394.5">+hide()</text></g></g><g transform="translate(-410,-302) scale(1,1)"><g><path fill="none" stroke="none"></path><text fill="#000000" stroke="none" font-family="Arial" font-size="13px" font-style="normal" font-weight="normal" text-decoration="none" x="697" y="409.5">+update()</text></g></g><g transform="translate(-410,-302) scale(1,1)"><g><path fill="none" stroke="none"></path><text fill="#000000" stroke="none" font-family="Arial" font-size="13px" font-style="normal" font-weight="normal" text-decoration="none" x="697" y="424.5">+render()</text></g></g><g transform="translate(-410,-302) scale(1,1)"><path fill="none" stroke="#000000" d="M 730 531 L 730 430" stroke-miterlimit="10"></path></g><g transform="translate(-410,-302) scale(1,1)"><path fill="#FFFFFF" stroke="none" d="M 738.419035512032 450.3253497152483 L 730 430 L 721.580964487968 450.3253497152483"></path></g><g transform="translate(-410,-302) scale(1,1)"><path fill="none" stroke="#000000" d="M 738.419035512032 450.3253497152483 L 730 430 L 721.580964487968 450.3253497152483 L 738.419035512032 450.3253497152483" stroke-miterlimit="10"></path></g><g transform="translate(-410,-302) scale(1,1)"><rect fill="#C0C0C0" stroke="none" x="543" y="843" width="150" height="192" opacity="0.2"></rect></g><g transform="translate(-410,-302) scale(1,1)"><rect fill="#ffffff" stroke="none" x="536" y="836" width="150" height="192"></rect></g><g transform="translate(-410,-302) scale(1,1)"><path fill="none" stroke="#000000" d="M 536 836 L 686 836 L 686 1028 L 536 1028 L 536 836 Z Z" stroke-miterlimit="10"></path></g><g transform="translate(-410,-302) scale(1,1)"><path fill="none" stroke="#000000" d="M 536 876 L 686 876" stroke-miterlimit="10"></path></g><g transform="translate(-410,-302) scale(1,1)"><path fill="none" stroke="#000000" d="M 536 886 L 686 886" stroke-miterlimit="10"></path></g><g transform="translate(-410,-302) scale(1,1)"><g><path fill="none" stroke="none"></path><text fill="#000000" stroke="none" font-family="Arial" font-size="13px" font-style="normal" font-weight="bold" text-decoration="none" x="593.5" y="855.5">Lobby</text></g></g><g transform="translate(-410,-302) scale(1,1)"><g><path fill="none" stroke="none"></path><text fill="#000000" stroke="none" font-family="Arial" font-size="13px" font-style="normal" font-weight="normal" text-decoration="none" x="578.5" y="870.5">(from View)</text></g></g><g transform="translate(-410,-302) scale(1,1)"><g><path fill="none" stroke="none"></path><text fill="#000000" stroke="none" font-family="Arial" font-size="13px" font-style="normal" font-weight="normal" text-decoration="none" x="541" y="903.5">+onRefreshButtonClick()</text></g></g><g transform="translate(-410,-302) scale(1,1)"><g><path fill="none" stroke="none"></path><text fill="#000000" stroke="none" font-family="Arial" font-size="13px" font-style="normal" font-weight="normal" text-decoration="none" x="541" y="918.5">+onClearButtonClick()</text></g></g><g transform="translate(-410,-302) scale(1,1)"><g><path fill="none" stroke="none"></path><text fill="#000000" stroke="none" font-family="Arial" font-size="13px" font-style="normal" font-weight="normal" text-decoration="none" x="541" y="933.5">+onJoinButtonClick()</text></g></g><g transform="translate(-410,-302) scale(1,1)"><g><path fill="none" stroke="none"></path><text fill="#000000" stroke="none" font-family="Arial" font-size="13px" font-style="normal" font-weight="normal" text-decoration="none" x="541" y="948.5">+onAiButtonClick()</text></g></g><g transform="translate(-410,-302) scale(1,1)"><g><path fill="none" stroke="none"></path><text fill="#000000" stroke="none" font-family="Arial" font-size="13px" font-style="normal" font-weight="normal" text-decoration="none" x="541" y="963.5">+onCreateButtonClick()</text></g></g><g transform="translate(-410,-302) scale(1,1)"><g><path fill="none" stroke="none"></path><text fill="#000000" stroke="none" font-family="Arial" font-size="13px" font-style="normal" font-weight="normal" text-decoration="none" x="541" y="978.5">+addGameItem()</text></g></g><g transform="translate(-410,-302) scale(1,1)"><g><path fill="none" stroke="none"></path><text fill="#000000" stroke="none" font-family="Arial" font-size="13px" font-style="normal" font-weight="normal" text-decoration="none" x="541" y="993.5">+clearGameItems()</text></g></g><g transform="translate(-410,-302) scale(1,1)"><g><path fill="none" stroke="none"></path><text fill="#000000" stroke="none" font-family="Arial" font-size="13px" font-style="normal" font-weight="normal" text-decoration="none" x="541" y="1008.5">+show()</text></g></g><g transform="translate(-410,-302) scale(1,1)"><g><path fill="none" stroke="none"></path><text fill="#000000" stroke="none" font-family="Arial" font-size="13px" font-style="normal" font-weight="normal" text-decoration="none" x="541" y="1023.5">+hide()</text></g></g><g transform="translate(-410,-302) scale(1,1)"><rect fill="#C0C0C0" stroke="none" x="439" y="415" width="174" height="145" opacity="0.2"></rect></g><g transform="translate(-410,-302) scale(1,1)"><rect fill="#ffffff" stroke="none" x="432" y="408" width="174" height="145"></rect></g><g transform="translate(-410,-302) scale(1,1)"><path fill="none" stroke="#000000" d="M 432 408 L 606 408 L 606 553 L 432 553 L 432 408 Z Z" stroke-miterlimit="10"></path></g><g transform="translate(-410,-302) scale(1,1)"><path fill="none" stroke="#000000" d="M 432 461 L 606 461" stroke-miterlimit="10"></path></g><g transform="translate(-410,-302) scale(1,1)"><path fill="none" stroke="#000000" d="M 432 471 L 606 471" stroke-miterlimit="10"></path></g><g transform="translate(-410,-302) scale(1,1)"><g><path fill="none" stroke="none"></path><text fill="#000000" stroke="none" font-family="Arial" font-size="13px" font-style="normal" font-weight="normal" text-decoration="none" x="486" y="425.5">«singleton»</text></g></g><g transform="translate(-410,-302) scale(1,1)"><g><path fill="none" stroke="none"></path><text fill="#000000" stroke="none" font-family="Arial" font-size="13px" font-style="italic" font-weight="bold" text-decoration="none" x="501" y="440.5">Lobby</text></g></g><g transform="translate(-410,-302) scale(1,1)"><g><path fill="none" stroke="none"></path><text fill="#000000" stroke="none" font-family="Arial" font-size="13px" font-style="normal" font-weight="normal" text-decoration="none" x="476" y="455.5">(from Services)</text></g></g><g transform="translate(-410,-302) scale(1,1)"><g><path fill="none" stroke="none"></path><text fill="#000000" stroke="none" font-family="Arial" font-size="13px" font-style="normal" font-weight="normal" text-decoration="none" x="437" y="488.5">+getGames(): $.Deffered</text></g></g><g transform="translate(-410,-302) scale(1,1)"><g><path fill="none" stroke="none"></path><text fill="#000000" stroke="none" font-family="Arial" font-size="13px" font-style="normal" font-weight="normal" text-decoration="none" x="437" y="503.5">+getGame(): $.Deffered</text></g></g><g transform="translate(-410,-302) scale(1,1)"><g><path fill="none" stroke="none"></path><text fill="#000000" stroke="none" font-family="Arial" font-size="13px" font-style="normal" font-weight="normal" text-decoration="none" x="437" y="518.5">+clearGames(): $.Deffered</text></g></g><g transform="translate(-410,-302) scale(1,1)"><g><path fill="none" stroke="none"></path><text fill="#000000" stroke="none" font-family="Arial" font-size="13px" font-style="normal" font-weight="normal" text-decoration="none" x="437" y="533.5">+createAiGame(): $.Deffered</text></g></g><g transform="translate(-410,-302) scale(1,1)"><g><path fill="none" stroke="none"></path><text fill="#000000" stroke="none" font-family="Arial" font-size="13px" font-style="normal" font-weight="normal" text-decoration="none" x="437" y="548.5">+createGame(): $.Deffered</text></g></g><g transform="translate(-410,-302) scale(1,1)"><rect fill="#C0C0C0" stroke="none" x="959" y="363" width="174" height="312" opacity="0.2"></rect></g><g transform="translate(-410,-302) scale(1,1)"><rect fill="#ffffff" stroke="none" x="952" y="356" width="174" height="312"></rect></g><g transform="translate(-410,-302) scale(1,1)"><path fill="none" stroke="#000000" d="M 952 356 L 1126 356 L 1126 668 L 952 668 L 952 356 Z Z" stroke-miterlimit="10"></path></g><g transform="translate(-410,-302) scale(1,1)"><path fill="none" stroke="#000000" d="M 952 396 L 1126 396" stroke-miterlimit="10"></path></g><g transform="translate(-410,-302) scale(1,1)"><path fill="none" stroke="#000000" d="M 952 406 L 1126 406" stroke-miterlimit="10"></path></g><g transform="translate(-410,-302) scale(1,1)"><g><path fill="none" stroke="none"></path><text fill="#000000" stroke="none" font-family="Arial" font-size="13px" font-style="normal" font-weight="bold" text-decoration="none" x="1022" y="375.5">Setup</text></g></g><g transform="translate(-410,-302) scale(1,1)"><g><path fill="none" stroke="none"></path><text fill="#000000" stroke="none" font-family="Arial" font-size="13px" font-style="normal" font-weight="normal" text-decoration="none" x="1005" y="390.5">(from State)</text></g></g><g transform="translate(-410,-302) scale(1,1)"><g><path fill="none" stroke="none"></path><text fill="#000000" stroke="none" font-family="Arial" font-size="13px" font-style="normal" font-weight="normal" text-decoration="none" x="957" y="423.5">+show()</text></g></g><g transform="translate(-410,-302) scale(1,1)"><g><path fill="none" stroke="none"></path><text fill="#000000" stroke="none" font-family="Arial" font-size="13px" font-style="normal" font-weight="normal" text-decoration="none" x="957" y="438.5">+hide()</text></g></g><g transform="translate(-410,-302) scale(1,1)"><g><path fill="none" stroke="none"></path><text fill="#000000" stroke="none" font-family="Arial" font-size="13px" font-style="normal" font-weight="normal" text-decoration="none" x="957" y="453.5">+registerListeners()</text></g></g><g transform="translate(-410,-302) scale(1,1)"><g><path fill="none" stroke="none"></path><text fill="#000000" stroke="none" font-family="Arial" font-size="13px" font-style="normal" font-weight="normal" text-decoration="none" x="957" y="468.5">+createEnvironment()</text></g></g><g transform="translate(-410,-302) scale(1,1)"><g><path fill="none" stroke="none"></path><text fill="#000000" stroke="none" font-family="Arial" font-size="13px" font-style="normal" font-weight="normal" text-decoration="none" x="957" y="483.5">+createControls()</text></g></g><g transform="translate(-410,-302) scale(1,1)"><g><path fill="none" stroke="none"></path><text fill="#000000" stroke="none" font-family="Arial" font-size="13px" font-style="normal" font-weight="normal" text-decoration="none" x="957" y="498.5">+createGrid()</text></g></g><g transform="translate(-410,-302) scale(1,1)"><g><path fill="none" stroke="none"></path><text fill="#000000" stroke="none" font-family="Arial" font-size="13px" font-style="normal" font-weight="normal" text-decoration="none" x="957" y="513.5">+enableControls()</text></g></g><g transform="translate(-410,-302) scale(1,1)"><g><path fill="none" stroke="none"></path><text fill="#000000" stroke="none" font-family="Arial" font-size="13px" font-style="normal" font-weight="normal" text-decoration="none" x="957" y="528.5">+disableControls()</text></g></g><g transform="translate(-410,-302) scale(1,1)"><g><path fill="none" stroke="none"></path><text fill="#000000" stroke="none" font-family="Arial" font-size="13px" font-style="normal" font-weight="normal" text-decoration="none" x="957" y="543.5">+update(delta: Number)</text></g></g><g transform="translate(-410,-302) scale(1,1)"><g><path fill="none" stroke="none"></path><text fill="#000000" stroke="none" font-family="Arial" font-size="13px" font-style="normal" font-weight="normal" text-decoration="none" x="957" y="558.5">+loadShips()</text></g></g><g transform="translate(-410,-302) scale(1,1)"><g><path fill="none" stroke="none"></path><text fill="#000000" stroke="none" font-family="Arial" font-size="13px" font-style="normal" font-weight="normal" text-decoration="none" x="957" y="573.5">+selectShip(ship: Ship)</text></g></g><g transform="translate(-410,-302) scale(1,1)"><g><path fill="none" stroke="none"></path><text fill="#000000" stroke="none" font-family="Arial" font-size="13px" font-style="normal" font-weight="normal" text-decoration="none" x="957" y="588.5">+deselectShip()</text></g></g><g transform="translate(-410,-302) scale(1,1)"><g><path fill="none" stroke="none"></path><text fill="#000000" stroke="none" font-family="Arial" font-size="13px" font-style="normal" font-weight="normal" text-decoration="none" x="957" y="603.5">+placeShip(): Boolean</text></g></g><g transform="translate(-410,-302) scale(1,1)"><g><path fill="none" stroke="none"></path><text fill="#000000" stroke="none" font-family="Arial" font-size="13px" font-style="normal" font-weight="normal" text-decoration="none" x="957" y="618.5">+rotateShip()</text></g></g><g transform="translate(-410,-302) scale(1,1)"><g><path fill="none" stroke="none"></path><text fill="#000000" stroke="none" font-family="Arial" font-size="13px" font-style="normal" font-weight="normal" text-decoration="none" x="957" y="633.5">+onDocumentMouseMove(e)</text></g></g><g transform="translate(-410,-302) scale(1,1)"><g><path fill="none" stroke="none"></path><text fill="#000000" stroke="none" font-family="Arial" font-size="13px" font-style="normal" font-weight="normal" text-decoration="none" x="957" y="648.5">+onReady()</text></g></g><g transform="translate(-410,-302) scale(1,1)"><g><path fill="none" stroke="none"></path><text fill="#000000" stroke="none" font-family="Arial" font-size="13px" font-style="normal" font-weight="normal" text-decoration="none" x="957" y="663.5">+render(delta: Number)</text></g></g><g transform="translate(-410,-302) scale(1,1)"><path fill="none" stroke="#000000" d="M 951 472 L 770 388" stroke-miterlimit="10"></path></g><g transform="translate(-410,-302) scale(1,1)"><path fill="#FFFFFF" stroke="none" d="M 791.9807750711775 388.9195255680519 L 770 388 L 784.8925523439219 404.1929578732097"></path></g><g transform="translate(-410,-302) scale(1,1)"><path fill="none" stroke="#000000" d="M 791.9807750711775 388.9195255680519 L 770 388 L 784.8925523439219 404.1929578732097 L 791.9807750711775 388.9195255680519" stroke-miterlimit="10"></path></g><g transform="translate(-410,-302) scale(1,1)"><rect fill="#C0C0C0" stroke="none" x="427" y="611" width="95" height="100" opacity="0.2"></rect></g><g transform="translate(-410,-302) scale(1,1)"><rect fill="#ffffff" stroke="none" x="420" y="604" width="95" height="100"></rect></g><g transform="translate(-410,-302) scale(1,1)"><path fill="none" stroke="#000000" d="M 420 604 L 515 604 L 515 704 L 420 704 L 420 604 Z Z" stroke-miterlimit="10"></path></g><g transform="translate(-410,-302) scale(1,1)"><path fill="none" stroke="#000000" d="M 420 657 L 515 657" stroke-miterlimit="10"></path></g><g transform="translate(-410,-302) scale(1,1)"><path fill="none" stroke="#000000" d="M 420 667 L 515 667" stroke-miterlimit="10"></path></g><g transform="translate(-410,-302) scale(1,1)"><g><path fill="none" stroke="none"></path><text fill="#000000" stroke="none" font-family="Arial" font-size="13px" font-style="normal" font-weight="normal" text-decoration="none" x="434.5" y="621.5">«singleton»</text></g></g><g transform="translate(-410,-302) scale(1,1)"><g><path fill="none" stroke="none"></path><text fill="#000000" stroke="none" font-family="Arial" font-size="13px" font-style="normal" font-weight="bold" text-decoration="none" x="451" y="636.5">Audio</text></g></g><g transform="translate(-410,-302) scale(1,1)"><g><path fill="none" stroke="none"></path><text fill="#000000" stroke="none" font-family="Arial" font-size="13px" font-style="normal" font-weight="normal" text-decoration="none" x="424.5" y="651.5">(from Services)</text></g></g><g transform="translate(-410,-302) scale(1,1)"><g><path fill="none" stroke="none"></path><text fill="#000000" stroke="none" font-family="Arial" font-size="13px" font-style="normal" font-weight="normal" text-decoration="none" x="425" y="684.5">+play()</text></g></g><g transform="translate(-410,-302) scale(1,1)"><g><path fill="none" stroke="none"></path><text fill="#000000" stroke="none" font-family="Arial" font-size="13px" font-style="normal" font-weight="normal" text-decoration="none" x="425" y="699.5">+stop()</text></g></g><g transform="translate(-410,-302) scale(1,1)"><rect fill="#C0C0C0" stroke="none" x="1035" y="807" width="77" height="59" opacity="0.2"></rect></g><g transform="translate(-410,-302) scale(1,1)"><rect fill="#ffffff" stroke="none" x="1028" y="800" width="77" height="59"></rect></g><g transform="translate(-410,-302) scale(1,1)"><path fill="none" stroke="#000000" d="M 1028 800 L 1105 800 L 1105 859 L 1028 859 L 1028 800 Z Z" stroke-miterlimit="10"></path></g><g transform="translate(-410,-302) scale(1,1)"><path fill="none" stroke="#000000" d="M 1028 840 L 1105 840" stroke-miterlimit="10"></path></g><g transform="translate(-410,-302) scale(1,1)"><path fill="none" stroke="#000000" d="M 1028 850 L 1160 850" stroke-miterlimit="10"></path></g><g transform="translate(-410,-302) scale(1,1)"><g><path fill="none" stroke="none"></path><text fill="#000000" stroke="none" font-family="Arial" font-size="13px" font-style="normal" font-weight="bold" text-decoration="none" x="1051.5" y="819.5">Done</text></g></g><g transform="translate(-410,-302) scale(1,1)"><g><path fill="none" stroke="none"></path><text fill="#000000" stroke="none" font-family="Arial" font-size="13px" font-style="normal" font-weight="normal" text-decoration="none" x="1032.5" y="834.5">(from State)</text></g></g><g transform="translate(-410,-302) scale(1,1)"><g><path fill="none" stroke="none"></path><text fill="#000000" stroke="none" font-family="Arial" font-size="13px" font-style="normal" font-weight="normal" text-decoration="none" x="1033" y="867.5">+show()</text></g></g><g transform="translate(-410,-302) scale(1,1)"><g><path fill="none" stroke="none"></path><text fill="#000000" stroke="none" font-family="Arial" font-size="13px" font-style="normal" font-weight="normal" text-decoration="none" x="1033" y="882.5">+hide()</text></g></g><g transform="translate(-410,-302) scale(1,1)"><g><path fill="none" stroke="none"></path><text fill="#000000" stroke="none" font-family="Arial" font-size="13px" font-style="normal" font-weight="normal" text-decoration="none" x="1033" y="897.5">+registerListeners()</text></g></g><g transform="translate(-410,-302) scale(1,1)"><g><path fill="none" stroke="none"></path><text fill="#000000" stroke="none" font-family="Arial" font-size="13px" font-style="normal" font-weight="normal" text-decoration="none" x="1033" y="912.5">+createEnvironment()</text></g></g><g transform="translate(-410,-302) scale(1,1)"><g><path fill="none" stroke="none"></path><text fill="#000000" stroke="none" font-family="Arial" font-size="13px" font-style="normal" font-weight="normal" text-decoration="none" x="1033" y="927.5">+update()</text></g></g><g transform="translate(-410,-302) scale(1,1)"><g><path fill="none" stroke="none"></path><text fill="#000000" stroke="none" font-family="Arial" font-size="13px" font-style="normal" font-weight="normal" text-decoration="none" x="1033" y="942.5">+render()</text></g></g><g transform="translate(-410,-302) scale(1,1)"><g><path fill="none" stroke="none"></path><text fill="#000000" stroke="none" font-family="Arial" font-size="13px" font-style="normal" font-weight="normal" text-decoration="none" x="1033" y="957.5">+onBack()</text></g></g><g transform="translate(-410,-302) scale(1,1)"><path fill="none" stroke="#000000" d="M 818 616 L 951 554" stroke-miterlimit="10"></path></g><g transform="translate(-410,-302) scale(1,1)"><path fill="none" stroke="#000000" d="M 818 703 L 1027 809" stroke-miterlimit="10"></path></g><g transform="translate(-410,-302) scale(1,1)"><path fill="none" stroke="#000000" d="M 653 835 L 675 785" stroke-miterlimit="10"></path></g><g transform="translate(-410,-302) scale(1,1)"><path fill="#FFFFFF" stroke="none" d="M 674.7601332919363 795.9973844145943 L 675 785 L 667.0540635292724 792.6067137190222 L 666.1397504861476 805.1369307133009"></path></g><g transform="translate(-410,-302) scale(1,1)"><path fill="none" stroke="#000000" d="M 674.7601332919363 795.9973844145943 L 675 785 L 667.0540635292724 792.6067137190222 L 666.1397504861476 805.1369307133009 L 674.7601332919363 795.9973844145943" stroke-miterlimit="10"></path></g><g transform="translate(-410,-302) scale(1,1)"><path fill="none" stroke="#000000" d="M 607 554 L 643 585" stroke-miterlimit="10"></path></g><g transform="translate(-410,-302) scale(1,1)"><path fill="none" stroke="#000000" d="M 516 655 L 643 657" stroke-miterlimit="10"></path></g></g></svg>